<mxfile modified="2023-05-23T13:14:56.368Z" host="Electron" agent="Mozilla/5.0 (Macintosh; Intel Mac OS X 10_15_7) AppleWebKit/537.36 (KHTML, like Gecko) draw.io/21.2.8 Chrome/112.0.5615.165 Electron/24.2.0 Safari/537.36" etag="ExLR-nsxyMhoZ7nuABrv" version="21.2.8" type="device" pages="3">
  <diagram id="C2fSY1v2SiZeoUbDoYyL" name="vertical">
    <mxGraphModel dx="2138" dy="584" grid="1" gridSize="10" guides="1" tooltips="1" connect="1" arrows="1" fold="1" page="0" pageScale="1" pageWidth="1169" pageHeight="827" math="0" shadow="0">
      <root>
        <mxCell id="0" />
        <mxCell id="1" parent="0" />
        <mxCell id="kWJayBoJ60m9TDrZzvdE-2" value="&lt;font style=&quot;font-size: 24px&quot;&gt;4 - 6&lt;/font&gt;" style="rounded=1;whiteSpace=wrap;html=1;fillColor=none;strokeColor=#FF3333;" parent="1" vertex="1">
          <mxGeometry x="490" y="1400" width="200" height="220" as="geometry" />
        </mxCell>
        <mxCell id="kWJayBoJ60m9TDrZzvdE-3" value="&lt;font style=&quot;font-size: 24px&quot;&gt;3&lt;/font&gt;" style="rounded=1;whiteSpace=wrap;html=1;fillColor=none;strokeColor=#FF3333;" parent="1" vertex="1">
          <mxGeometry x="490" y="1140" width="200" height="220" as="geometry" />
        </mxCell>
        <mxCell id="kWJayBoJ60m9TDrZzvdE-4" style="edgeStyle=none;rounded=0;orthogonalLoop=1;jettySize=auto;html=1;entryX=1;entryY=0.5;entryDx=0;entryDy=0;exitX=0.011;exitY=-0.019;exitDx=0;exitDy=0;exitPerimeter=0;" parent="1" source="kWJayBoJ60m9TDrZzvdE-117" target="kWJayBoJ60m9TDrZzvdE-79" edge="1">
          <mxGeometry relative="1" as="geometry" />
        </mxCell>
        <mxCell id="kWJayBoJ60m9TDrZzvdE-5" style="edgeStyle=none;rounded=0;orthogonalLoop=1;jettySize=auto;html=1;entryX=0;entryY=0.5;entryDx=0;entryDy=0;strokeColor=#0000CC;exitX=1;exitY=0;exitDx=0;exitDy=0;exitPerimeter=0;" parent="1" source="kWJayBoJ60m9TDrZzvdE-47" target="kWJayBoJ60m9TDrZzvdE-107" edge="1">
          <mxGeometry relative="1" as="geometry">
            <mxPoint x="1575" y="946.8203979090474" as="sourcePoint" />
            <mxPoint x="2990.9900000000002" y="1296.984" as="targetPoint" />
          </mxGeometry>
        </mxCell>
        <mxCell id="kWJayBoJ60m9TDrZzvdE-6" value="&lt;font style=&quot;font-size: 24px&quot;&gt;7&lt;br&gt;&lt;br&gt;&lt;br&gt;&lt;br&gt;&amp;nbsp; &amp;nbsp; &amp;nbsp; &amp;nbsp;7&amp;nbsp; &amp;nbsp; &amp;nbsp; &amp;nbsp;&amp;nbsp;&lt;/font&gt;" style="rounded=1;whiteSpace=wrap;html=1;fillColor=none;strokeColor=#FF3333;align=center;" parent="1" vertex="1">
          <mxGeometry x="490" y="1640" width="200" height="329" as="geometry" />
        </mxCell>
        <mxCell id="kWJayBoJ60m9TDrZzvdE-7" style="edgeStyle=none;rounded=0;orthogonalLoop=1;jettySize=auto;html=1;entryX=1;entryY=0.5;entryDx=0;entryDy=0;strokeColor=#CC6600;exitX=0;exitY=0;exitDx=0;exitDy=0;exitPerimeter=0;" parent="1" source="kWJayBoJ60m9TDrZzvdE-85" target="kWJayBoJ60m9TDrZzvdE-79" edge="1">
          <mxGeometry relative="1" as="geometry">
            <mxPoint x="1378" y="1170" as="targetPoint" />
          </mxGeometry>
        </mxCell>
        <mxCell id="kWJayBoJ60m9TDrZzvdE-8" style="edgeStyle=none;rounded=0;orthogonalLoop=1;jettySize=auto;html=1;entryX=1;entryY=0.5;entryDx=0;entryDy=0;strokeColor=#CC6600;exitX=0;exitY=-0.038;exitDx=0;exitDy=0;exitPerimeter=0;" parent="1" source="kWJayBoJ60m9TDrZzvdE-85" target="kWJayBoJ60m9TDrZzvdE-66" edge="1">
          <mxGeometry relative="1" as="geometry" />
        </mxCell>
        <mxCell id="kWJayBoJ60m9TDrZzvdE-9" style="edgeStyle=none;rounded=0;orthogonalLoop=1;jettySize=auto;html=1;strokeColor=#CC6600;exitX=0;exitY=0.5;exitDx=0;exitDy=0;entryX=1;entryY=0.5;entryDx=0;entryDy=0;" parent="1" source="kWJayBoJ60m9TDrZzvdE-71" target="kWJayBoJ60m9TDrZzvdE-79" edge="1">
          <mxGeometry relative="1" as="geometry">
            <mxPoint x="780" y="1030" as="targetPoint" />
          </mxGeometry>
        </mxCell>
        <mxCell id="kWJayBoJ60m9TDrZzvdE-10" value="Foundational&amp;nbsp; &amp;nbsp; &amp;nbsp; &amp;nbsp; &amp;nbsp;&amp;nbsp;" style="text;html=1;resizable=0;autosize=1;align=left;verticalAlign=middle;points=[];fillColor=#CCE5FF;strokeColor=#000000;rounded=0;" parent="1" vertex="1">
          <mxGeometry x="887" y="2008" width="120" height="20" as="geometry" />
        </mxCell>
        <mxCell id="kWJayBoJ60m9TDrZzvdE-11" value="Developmental&amp;nbsp; &amp;nbsp; &amp;nbsp; &amp;nbsp;" style="text;html=1;resizable=0;autosize=1;align=left;verticalAlign=middle;points=[];fillColor=#CCFFE6;strokeColor=#000000;rounded=0;" parent="1" vertex="1">
          <mxGeometry x="887" y="2028" width="120" height="20" as="geometry" />
        </mxCell>
        <mxCell id="kWJayBoJ60m9TDrZzvdE-12" value="Post-developmental" style="text;html=1;resizable=0;autosize=1;align=left;verticalAlign=middle;points=[];fillColor=#FFFFCC;strokeColor=#000000;rounded=0;" parent="1" vertex="1">
          <mxGeometry x="887" y="2048" width="120" height="20" as="geometry" />
        </mxCell>
        <mxCell id="kWJayBoJ60m9TDrZzvdE-13" value="General&amp;nbsp; &amp;nbsp; &amp;nbsp; &amp;nbsp; &amp;nbsp; &amp;nbsp; &amp;nbsp; &amp;nbsp; &amp;nbsp;&amp;nbsp;" style="text;html=1;resizable=0;autosize=1;align=left;verticalAlign=middle;points=[];rounded=0;strokeColor=#000000;" parent="1" vertex="1">
          <mxGeometry x="887" y="1988" width="120" height="20" as="geometry" />
        </mxCell>
        <mxCell id="kWJayBoJ60m9TDrZzvdE-14" style="edgeStyle=none;rounded=0;orthogonalLoop=1;jettySize=auto;html=1;strokeColor=#CC6600;entryX=1;entryY=0.5;entryDx=0;entryDy=0;exitX=0;exitY=0.5;exitDx=0;exitDy=0;" parent="1" source="kWJayBoJ60m9TDrZzvdE-57" target="kWJayBoJ60m9TDrZzvdE-68" edge="1">
          <mxGeometry relative="1" as="geometry">
            <mxPoint x="1890" y="1186" as="targetPoint" />
          </mxGeometry>
        </mxCell>
        <mxCell id="kWJayBoJ60m9TDrZzvdE-15" style="edgeStyle=none;rounded=0;orthogonalLoop=1;jettySize=auto;html=1;entryX=1;entryY=0.5;entryDx=0;entryDy=0;strokeColor=#CC6600;exitX=0.01;exitY=-0.038;exitDx=0;exitDy=0;exitPerimeter=0;" parent="1" source="kWJayBoJ60m9TDrZzvdE-58" target="kWJayBoJ60m9TDrZzvdE-55" edge="1">
          <mxGeometry relative="1" as="geometry" />
        </mxCell>
        <mxCell id="kWJayBoJ60m9TDrZzvdE-16" style="edgeStyle=none;rounded=0;orthogonalLoop=1;jettySize=auto;html=1;entryX=1;entryY=0.5;entryDx=0;entryDy=0;strokeColor=#CC6600;exitX=0.005;exitY=0.038;exitDx=0;exitDy=0;exitPerimeter=0;" parent="1" source="kWJayBoJ60m9TDrZzvdE-58" target="kWJayBoJ60m9TDrZzvdE-93" edge="1">
          <mxGeometry relative="1" as="geometry" />
        </mxCell>
        <mxCell id="kWJayBoJ60m9TDrZzvdE-17" style="edgeStyle=none;rounded=0;orthogonalLoop=1;jettySize=auto;html=1;entryX=1;entryY=0.5;entryDx=0;entryDy=0;" parent="1" source="kWJayBoJ60m9TDrZzvdE-81" target="kWJayBoJ60m9TDrZzvdE-79" edge="1">
          <mxGeometry relative="1" as="geometry" />
        </mxCell>
        <mxCell id="kWJayBoJ60m9TDrZzvdE-18" style="edgeStyle=none;rounded=0;orthogonalLoop=1;jettySize=auto;html=1;entryX=1;entryY=0.5;entryDx=0;entryDy=0;exitX=0.019;exitY=0.019;exitDx=0;exitDy=0;exitPerimeter=0;" parent="1" source="kWJayBoJ60m9TDrZzvdE-74" target="kWJayBoJ60m9TDrZzvdE-68" edge="1">
          <mxGeometry relative="1" as="geometry">
            <mxPoint x="2230" y="1210" as="targetPoint" />
          </mxGeometry>
        </mxCell>
        <mxCell id="kWJayBoJ60m9TDrZzvdE-19" style="edgeStyle=none;rounded=0;orthogonalLoop=1;jettySize=auto;html=1;entryX=1;entryY=0.5;entryDx=0;entryDy=0;" parent="1" source="kWJayBoJ60m9TDrZzvdE-60" target="kWJayBoJ60m9TDrZzvdE-55" edge="1">
          <mxGeometry relative="1" as="geometry" />
        </mxCell>
        <mxCell id="kWJayBoJ60m9TDrZzvdE-20" style="edgeStyle=none;rounded=0;orthogonalLoop=1;jettySize=auto;html=1;entryX=1;entryY=0.5;entryDx=0;entryDy=0;" parent="1" source="kWJayBoJ60m9TDrZzvdE-95" target="kWJayBoJ60m9TDrZzvdE-93" edge="1">
          <mxGeometry relative="1" as="geometry" />
        </mxCell>
        <mxCell id="kWJayBoJ60m9TDrZzvdE-21" style="edgeStyle=none;rounded=0;orthogonalLoop=1;jettySize=auto;html=1;entryX=1;entryY=0.5;entryDx=0;entryDy=0;" parent="1" source="kWJayBoJ60m9TDrZzvdE-116" target="kWJayBoJ60m9TDrZzvdE-107" edge="1">
          <mxGeometry relative="1" as="geometry" />
        </mxCell>
        <mxCell id="kWJayBoJ60m9TDrZzvdE-22" style="edgeStyle=none;rounded=0;orthogonalLoop=1;jettySize=auto;html=1;entryX=1;entryY=0.5;entryDx=0;entryDy=0;exitX=0.01;exitY=0.038;exitDx=0;exitDy=0;exitPerimeter=0;" parent="1" source="0PJl06LNYAqkFBzq1kRk-1" target="kWJayBoJ60m9TDrZzvdE-109" edge="1">
          <mxGeometry relative="1" as="geometry" />
        </mxCell>
        <mxCell id="kWJayBoJ60m9TDrZzvdE-23" style="edgeStyle=none;rounded=0;orthogonalLoop=1;jettySize=auto;html=1;entryX=1;entryY=0.5;entryDx=0;entryDy=0;" parent="1" source="kWJayBoJ60m9TDrZzvdE-76" target="kWJayBoJ60m9TDrZzvdE-66" edge="1">
          <mxGeometry relative="1" as="geometry" />
        </mxCell>
        <mxCell id="kWJayBoJ60m9TDrZzvdE-24" style="edgeStyle=none;rounded=0;orthogonalLoop=1;jettySize=auto;html=1;entryX=1;entryY=0.5;entryDx=0;entryDy=0;exitX=0.004;exitY=0.019;exitDx=0;exitDy=0;exitPerimeter=0;" parent="1" source="kWJayBoJ60m9TDrZzvdE-77" target="kWJayBoJ60m9TDrZzvdE-68" edge="1">
          <mxGeometry relative="1" as="geometry" />
        </mxCell>
        <mxCell id="kWJayBoJ60m9TDrZzvdE-25" style="edgeStyle=none;rounded=0;orthogonalLoop=1;jettySize=auto;html=1;entryX=1;entryY=0.5;entryDx=0;entryDy=0;strokeColor=#CC6600;exitX=0;exitY=0.038;exitDx=0;exitDy=0;exitPerimeter=0;" parent="1" source="kWJayBoJ60m9TDrZzvdE-114" target="kWJayBoJ60m9TDrZzvdE-109" edge="1">
          <mxGeometry relative="1" as="geometry" />
        </mxCell>
        <mxCell id="kWJayBoJ60m9TDrZzvdE-26" style="edgeStyle=none;rounded=0;orthogonalLoop=1;jettySize=auto;html=1;entryX=0;entryY=0.5;entryDx=0;entryDy=0;strokeColor=#0000CC;exitX=1;exitY=0;exitDx=0;exitDy=0;exitPerimeter=0;" parent="1" source="kWJayBoJ60m9TDrZzvdE-99" target="kWJayBoJ60m9TDrZzvdE-79" edge="1">
          <mxGeometry relative="1" as="geometry" />
        </mxCell>
        <mxCell id="kWJayBoJ60m9TDrZzvdE-27" style="edgeStyle=none;rounded=0;orthogonalLoop=1;jettySize=auto;html=1;strokeColor=#0000CC;entryX=0;entryY=0.5;entryDx=0;entryDy=0;exitX=0.995;exitY=0;exitDx=0;exitDy=0;exitPerimeter=0;" parent="1" source="kWJayBoJ60m9TDrZzvdE-102" target="kWJayBoJ60m9TDrZzvdE-79" edge="1">
          <mxGeometry relative="1" as="geometry">
            <mxPoint x="2030" y="1130" as="targetPoint" />
          </mxGeometry>
        </mxCell>
        <mxCell id="kWJayBoJ60m9TDrZzvdE-28" style="edgeStyle=none;rounded=0;orthogonalLoop=1;jettySize=auto;html=1;entryX=0;entryY=0.5;entryDx=0;entryDy=0;strokeColor=#0000CC;exitX=1;exitY=0;exitDx=0;exitDy=0;exitPerimeter=0;" parent="1" source="kWJayBoJ60m9TDrZzvdE-44" target="kWJayBoJ60m9TDrZzvdE-79" edge="1">
          <mxGeometry relative="1" as="geometry">
            <mxPoint x="1380" y="1200" as="targetPoint" />
          </mxGeometry>
        </mxCell>
        <mxCell id="kWJayBoJ60m9TDrZzvdE-29" style="edgeStyle=none;rounded=0;orthogonalLoop=1;jettySize=auto;html=1;entryX=0;entryY=0.5;entryDx=0;entryDy=0;strokeColor=#0000CC;exitX=1;exitY=0;exitDx=0;exitDy=0;exitPerimeter=0;" parent="1" source="kWJayBoJ60m9TDrZzvdE-44" target="kWJayBoJ60m9TDrZzvdE-109" edge="1">
          <mxGeometry relative="1" as="geometry">
            <mxPoint x="1560" y="970" as="sourcePoint" />
          </mxGeometry>
        </mxCell>
        <mxCell id="kWJayBoJ60m9TDrZzvdE-30" style="edgeStyle=none;rounded=0;orthogonalLoop=1;jettySize=auto;html=1;entryX=0;entryY=0.5;entryDx=0;entryDy=0;strokeColor=#0000CC;exitX=1;exitY=0;exitDx=0;exitDy=0;exitPerimeter=0;" parent="1" source="kWJayBoJ60m9TDrZzvdE-88" target="kWJayBoJ60m9TDrZzvdE-66" edge="1">
          <mxGeometry relative="1" as="geometry" />
        </mxCell>
        <mxCell id="kWJayBoJ60m9TDrZzvdE-31" style="edgeStyle=none;rounded=0;orthogonalLoop=1;jettySize=auto;html=1;entryX=0;entryY=0.5;entryDx=0;entryDy=0;strokeColor=#0000CC;exitX=1;exitY=0.038;exitDx=0;exitDy=0;exitPerimeter=0;" parent="1" source="kWJayBoJ60m9TDrZzvdE-88" target="kWJayBoJ60m9TDrZzvdE-68" edge="1">
          <mxGeometry relative="1" as="geometry" />
        </mxCell>
        <mxCell id="kWJayBoJ60m9TDrZzvdE-32" style="edgeStyle=none;rounded=0;orthogonalLoop=1;jettySize=auto;html=1;entryX=0;entryY=0.5;entryDx=0;entryDy=0;strokeColor=#0000CC;exitX=1.004;exitY=0;exitDx=0;exitDy=0;exitPerimeter=0;" parent="1" source="kWJayBoJ60m9TDrZzvdE-64" target="kWJayBoJ60m9TDrZzvdE-68" edge="1">
          <mxGeometry relative="1" as="geometry" />
        </mxCell>
        <mxCell id="kWJayBoJ60m9TDrZzvdE-33" style="edgeStyle=none;rounded=0;orthogonalLoop=1;jettySize=auto;html=1;entryX=0;entryY=0.5;entryDx=0;entryDy=0;strokeColor=#0000CC;exitX=1;exitY=0;exitDx=0;exitDy=0;exitPerimeter=0;" parent="1" source="kWJayBoJ60m9TDrZzvdE-53" target="kWJayBoJ60m9TDrZzvdE-55" edge="1">
          <mxGeometry relative="1" as="geometry" />
        </mxCell>
        <mxCell id="kWJayBoJ60m9TDrZzvdE-34" style="edgeStyle=none;rounded=0;orthogonalLoop=1;jettySize=auto;html=1;strokeColor=#0000CC;exitX=1;exitY=0;exitDx=0;exitDy=0;entryX=0;entryY=0.5;entryDx=0;entryDy=0;exitPerimeter=0;" parent="1" source="kWJayBoJ60m9TDrZzvdE-53" target="kWJayBoJ60m9TDrZzvdE-93" edge="1">
          <mxGeometry relative="1" as="geometry" />
        </mxCell>
        <mxCell id="kWJayBoJ60m9TDrZzvdE-35" style="edgeStyle=none;rounded=0;orthogonalLoop=1;jettySize=auto;html=1;entryX=0;entryY=0.5;entryDx=0;entryDy=0;strokeColor=#0000CC;exitX=1;exitY=0;exitDx=0;exitDy=0;exitPerimeter=0;" parent="1" source="kWJayBoJ60m9TDrZzvdE-53" target="kWJayBoJ60m9TDrZzvdE-79" edge="1">
          <mxGeometry relative="1" as="geometry" />
        </mxCell>
        <mxCell id="kWJayBoJ60m9TDrZzvdE-36" style="edgeStyle=none;rounded=0;orthogonalLoop=1;jettySize=auto;html=1;strokeColor=#0000CC;exitX=1;exitY=0;exitDx=0;exitDy=0;exitPerimeter=0;" parent="1" source="kWJayBoJ60m9TDrZzvdE-91" edge="1">
          <mxGeometry relative="1" as="geometry">
            <mxPoint x="544" y="1551" as="targetPoint" />
          </mxGeometry>
        </mxCell>
        <mxCell id="kWJayBoJ60m9TDrZzvdE-37" style="edgeStyle=none;rounded=0;orthogonalLoop=1;jettySize=auto;html=1;entryX=0;entryY=0.5;entryDx=0;entryDy=0;strokeColor=#0000CC;exitX=1;exitY=0;exitDx=0;exitDy=0;exitPerimeter=0;" parent="1" source="kWJayBoJ60m9TDrZzvdE-91" target="kWJayBoJ60m9TDrZzvdE-68" edge="1">
          <mxGeometry relative="1" as="geometry" />
        </mxCell>
        <mxCell id="kWJayBoJ60m9TDrZzvdE-38" style="edgeStyle=none;rounded=0;orthogonalLoop=1;jettySize=auto;html=1;entryX=0;entryY=0.5;entryDx=0;entryDy=0;strokeColor=#0000CC;exitX=1;exitY=0;exitDx=0;exitDy=0;exitPerimeter=0;" parent="1" source="kWJayBoJ60m9TDrZzvdE-105" target="kWJayBoJ60m9TDrZzvdE-107" edge="1">
          <mxGeometry relative="1" as="geometry" />
        </mxCell>
        <mxCell id="kWJayBoJ60m9TDrZzvdE-39" style="edgeStyle=none;rounded=0;orthogonalLoop=1;jettySize=auto;html=1;entryX=0;entryY=0.5;entryDx=0;entryDy=0;strokeColor=#0000CC;exitX=1.005;exitY=0;exitDx=0;exitDy=0;exitPerimeter=0;" parent="1" source="kWJayBoJ60m9TDrZzvdE-99" target="kWJayBoJ60m9TDrZzvdE-109" edge="1">
          <mxGeometry relative="1" as="geometry">
            <mxPoint x="3089.6099999999997" y="827" as="sourcePoint" />
            <mxPoint x="3089.6099999999997" y="1168.9999999999998" as="targetPoint" />
          </mxGeometry>
        </mxCell>
        <mxCell id="kWJayBoJ60m9TDrZzvdE-40" value="&lt;font style=&quot;font-size: 12px&quot;&gt;ISO 26262&lt;/font&gt;" style="rounded=1;whiteSpace=wrap;html=1;fillColor=none;strokeColor=#FF3333;" parent="1" vertex="1">
          <mxGeometry x="887" y="1960" width="120" height="20" as="geometry" />
        </mxCell>
        <mxCell id="kWJayBoJ60m9TDrZzvdE-41" style="edgeStyle=none;rounded=0;orthogonalLoop=1;jettySize=auto;html=1;strokeColor=#0000CC;exitX=1;exitY=0;exitDx=0;exitDy=0;entryX=0;entryY=0.5;entryDx=0;entryDy=0;exitPerimeter=0;" parent="1" source="kWJayBoJ60m9TDrZzvdE-47" target="kWJayBoJ60m9TDrZzvdE-68" edge="1">
          <mxGeometry relative="1" as="geometry">
            <mxPoint x="1780" y="1240" as="targetPoint" />
            <mxPoint x="1507.9133858267714" y="958" as="sourcePoint" />
          </mxGeometry>
        </mxCell>
        <mxCell id="kWJayBoJ60m9TDrZzvdE-42" style="edgeStyle=none;rounded=0;orthogonalLoop=1;jettySize=auto;html=1;strokeColor=#0000CC;exitX=1;exitY=0;exitDx=0;exitDy=0;entryX=0;entryY=0.5;entryDx=0;entryDy=0;exitPerimeter=0;" parent="1" source="kWJayBoJ60m9TDrZzvdE-50" target="kWJayBoJ60m9TDrZzvdE-79" edge="1">
          <mxGeometry relative="1" as="geometry">
            <mxPoint x="1626.0000000000005" y="1184" as="targetPoint" />
            <mxPoint x="1160" y="970.0000000000001" as="sourcePoint" />
          </mxGeometry>
        </mxCell>
        <mxCell id="kWJayBoJ60m9TDrZzvdE-122" style="edgeStyle=none;rounded=0;orthogonalLoop=1;jettySize=auto;html=1;entryX=0;entryY=0.5;entryDx=0;entryDy=0;strokeColor=#0000CC;exitX=1;exitY=0;exitDx=0;exitDy=0;exitPerimeter=0;" parent="1" source="kWJayBoJ60m9TDrZzvdE-91" target="kWJayBoJ60m9TDrZzvdE-55" edge="1">
          <mxGeometry relative="1" as="geometry">
            <mxPoint x="2464.5" y="908" as="sourcePoint" />
            <mxPoint x="1811.0000000000005" y="1120" as="targetPoint" />
          </mxGeometry>
        </mxCell>
        <mxCell id="kWJayBoJ60m9TDrZzvdE-66" value="Requirements" style="swimlane;fontStyle=0;childLayout=stackLayout;horizontal=1;startSize=26;fillColor=#CCFFE6;horizontalStack=0;resizeParent=1;resizeParentMax=0;resizeLast=0;collapsible=1;marginBottom=0;" parent="1" vertex="1" collapsed="1">
          <mxGeometry x="535" y="1162" width="110" height="26" as="geometry">
            <mxRectangle x="520" y="1160" width="140" height="52" as="alternateBounds" />
          </mxGeometry>
        </mxCell>
        <mxCell id="kWJayBoJ60m9TDrZzvdE-67" value="requirements_phase.md" style="text;strokeColor=none;fillColor=none;align=left;verticalAlign=top;spacingLeft=4;spacingRight=4;overflow=hidden;rotatable=0;points=[[0,0.5],[1,0.5]];portConstraint=eastwest;" parent="kWJayBoJ60m9TDrZzvdE-66" vertex="1">
          <mxGeometry y="26" width="110" height="26" as="geometry" />
        </mxCell>
        <mxCell id="kWJayBoJ60m9TDrZzvdE-68" value="Design" style="swimlane;fontStyle=0;childLayout=stackLayout;horizontal=1;startSize=26;fillColor=#CCFFE6;horizontalStack=0;resizeParent=1;resizeParentMax=0;resizeLast=0;collapsible=1;marginBottom=0;" parent="1" vertex="1" collapsed="1">
          <mxGeometry x="555.0000000000005" y="1290" width="70" height="26" as="geometry">
            <mxRectangle x="536.0000000000005" y="1290" width="108.0000000000004" height="52" as="alternateBounds" />
          </mxGeometry>
        </mxCell>
        <mxCell id="kWJayBoJ60m9TDrZzvdE-69" value="design_phase.md" style="text;strokeColor=none;fillColor=none;align=left;verticalAlign=top;spacingLeft=4;spacingRight=4;overflow=hidden;rotatable=0;points=[[0,0.5],[1,0.5]];portConstraint=eastwest;" parent="kWJayBoJ60m9TDrZzvdE-68" vertex="1">
          <mxGeometry y="26" width="70" height="26" as="geometry" />
        </mxCell>
        <mxCell id="kWJayBoJ60m9TDrZzvdE-79" value="Foundation" style="swimlane;fontStyle=0;childLayout=stackLayout;horizontal=1;startSize=26;fillColor=#CCE5FF;horizontalStack=0;resizeParent=1;resizeParentMax=0;resizeLast=0;collapsible=1;marginBottom=0;" parent="1" vertex="1" collapsed="1">
          <mxGeometry x="545" y="1013" width="90" height="26" as="geometry">
            <mxRectangle x="520" y="1015" width="140" height="52" as="alternateBounds" />
          </mxGeometry>
        </mxCell>
        <mxCell id="kWJayBoJ60m9TDrZzvdE-80" value="foundational_phase.md" style="text;strokeColor=none;fillColor=none;align=left;verticalAlign=top;spacingLeft=4;spacingRight=4;overflow=hidden;rotatable=0;points=[[0,0.5],[1,0.5]];portConstraint=eastwest;" parent="kWJayBoJ60m9TDrZzvdE-79" vertex="1">
          <mxGeometry y="26" width="90" height="26" as="geometry" />
        </mxCell>
        <mxCell id="kWJayBoJ60m9TDrZzvdE-46" value="Project Management" style="swimlane;fontStyle=0;childLayout=stackLayout;horizontal=1;startSize=26;fillColor=none;horizontalStack=0;resizeParent=1;resizeParentMax=0;resizeLast=0;collapsible=1;marginBottom=0;" parent="1" vertex="1">
          <mxGeometry x="120" y="1091" width="160" height="50" as="geometry">
            <mxRectangle x="742" y="320" width="130" height="26" as="alternateBounds" />
          </mxGeometry>
        </mxCell>
        <mxCell id="kWJayBoJ60m9TDrZzvdE-47" value="&#39;434-6" style="text;strokeColor=none;fillColor=none;align=left;verticalAlign=top;spacingLeft=4;spacingRight=4;overflow=hidden;rotatable=0;points=[[0,0.5],[1,0.5]];portConstraint=eastwest;" parent="kWJayBoJ60m9TDrZzvdE-46" vertex="1">
          <mxGeometry y="26" width="160" height="24" as="geometry" />
        </mxCell>
        <mxCell id="kWJayBoJ60m9TDrZzvdE-43" value="Continual Cybersecurity Activities" style="swimlane;fontStyle=0;childLayout=stackLayout;horizontal=1;startSize=26;fillColor=none;horizontalStack=0;resizeParent=1;resizeParentMax=0;resizeLast=0;collapsible=1;marginBottom=0;" parent="1" vertex="1">
          <mxGeometry x="70" y="1181" width="210" height="52" as="geometry" />
        </mxCell>
        <mxCell id="kWJayBoJ60m9TDrZzvdE-44" value="&#39;434-8" style="text;strokeColor=none;fillColor=none;align=left;verticalAlign=top;spacingLeft=4;spacingRight=4;overflow=hidden;rotatable=0;points=[[0,0.5],[1,0.5]];portConstraint=eastwest;" parent="kWJayBoJ60m9TDrZzvdE-43" vertex="1">
          <mxGeometry y="26" width="210" height="26" as="geometry" />
        </mxCell>
        <mxCell id="kWJayBoJ60m9TDrZzvdE-87" value="Concept" style="swimlane;fontStyle=0;childLayout=stackLayout;horizontal=1;startSize=26;fillColor=none;horizontalStack=0;resizeParent=1;resizeParentMax=0;resizeLast=0;collapsible=1;marginBottom=0;" parent="1" vertex="1">
          <mxGeometry x="180" y="1277" width="100" height="52" as="geometry">
            <mxRectangle x="742" y="320" width="130" height="26" as="alternateBounds" />
          </mxGeometry>
        </mxCell>
        <mxCell id="kWJayBoJ60m9TDrZzvdE-88" value="&#39;434-9" style="text;strokeColor=none;fillColor=none;align=left;verticalAlign=top;spacingLeft=4;spacingRight=4;overflow=hidden;rotatable=0;points=[[0,0.5],[1,0.5]];portConstraint=eastwest;" parent="kWJayBoJ60m9TDrZzvdE-87" vertex="1">
          <mxGeometry y="26" width="100" height="26" as="geometry" />
        </mxCell>
        <mxCell id="kWJayBoJ60m9TDrZzvdE-49" value="Organizational Management" style="swimlane;fontStyle=0;childLayout=stackLayout;horizontal=1;startSize=26;fillColor=none;horizontalStack=0;resizeParent=1;resizeParentMax=0;resizeLast=0;collapsible=1;marginBottom=0;" parent="1" vertex="1">
          <mxGeometry x="100" y="1000" width="180" height="50" as="geometry">
            <mxRectangle x="742" y="320" width="130" height="26" as="alternateBounds" />
          </mxGeometry>
        </mxCell>
        <mxCell id="kWJayBoJ60m9TDrZzvdE-50" value="&#39;434-5" style="text;strokeColor=none;fillColor=none;align=left;verticalAlign=top;spacingLeft=4;spacingRight=4;overflow=hidden;rotatable=0;points=[[0,0.5],[1,0.5]];portConstraint=eastwest;" parent="kWJayBoJ60m9TDrZzvdE-49" vertex="1">
          <mxGeometry y="26" width="180" height="24" as="geometry" />
        </mxCell>
        <mxCell id="kWJayBoJ60m9TDrZzvdE-63" value="Threat Analysis and Risk Assessment" style="swimlane;fontStyle=0;childLayout=stackLayout;horizontal=1;startSize=26;fillColor=none;horizontalStack=0;resizeParent=1;resizeParentMax=0;resizeLast=0;collapsible=1;marginBottom=0;" parent="1" vertex="1">
          <mxGeometry x="40" y="1990" width="240" height="52" as="geometry" />
        </mxCell>
        <mxCell id="kWJayBoJ60m9TDrZzvdE-64" value="&#39;434-15" style="text;strokeColor=none;fillColor=none;align=left;verticalAlign=top;spacingLeft=4;spacingRight=4;overflow=hidden;rotatable=0;points=[[0,0.5],[1,0.5]];portConstraint=eastwest;" parent="kWJayBoJ60m9TDrZzvdE-63" vertex="1">
          <mxGeometry y="26" width="240" height="26" as="geometry" />
        </mxCell>
        <mxCell id="kWJayBoJ60m9TDrZzvdE-55" value="Implementation" style="swimlane;fontStyle=0;childLayout=stackLayout;horizontal=1;startSize=26;fillColor=#CCFFE6;horizontalStack=0;resizeParent=1;resizeParentMax=0;resizeLast=0;collapsible=1;marginBottom=0;" parent="1" vertex="1" collapsed="1">
          <mxGeometry x="530" y="1431.5" width="110" height="26" as="geometry">
            <mxRectangle x="510" y="1430" width="160" height="52" as="alternateBounds" />
          </mxGeometry>
        </mxCell>
        <mxCell id="kWJayBoJ60m9TDrZzvdE-56" value="implementation_phase.md" style="text;strokeColor=none;fillColor=none;align=left;verticalAlign=top;spacingLeft=4;spacingRight=4;overflow=hidden;rotatable=0;points=[[0,0.5],[1,0.5]];portConstraint=eastwest;" parent="kWJayBoJ60m9TDrZzvdE-55" vertex="1">
          <mxGeometry y="26" width="110" height="26" as="geometry" />
        </mxCell>
        <mxCell id="kWJayBoJ60m9TDrZzvdE-93" value="Verification" style="swimlane;fontStyle=0;childLayout=stackLayout;horizontal=1;startSize=26;fillColor=#CCFFE6;horizontalStack=0;resizeParent=1;resizeParentMax=0;resizeLast=0;collapsible=1;marginBottom=0;" parent="1" vertex="1" collapsed="1">
          <mxGeometry x="545" y="1536.5" width="90" height="26" as="geometry">
            <mxRectangle x="525" y="1538" width="130" height="52" as="alternateBounds" />
          </mxGeometry>
        </mxCell>
        <mxCell id="kWJayBoJ60m9TDrZzvdE-94" value="verification_phase.md" style="text;strokeColor=none;fillColor=none;align=left;verticalAlign=top;spacingLeft=4;spacingRight=4;overflow=hidden;rotatable=0;points=[[0,0.5],[1,0.5]];portConstraint=eastwest;" parent="kWJayBoJ60m9TDrZzvdE-93" vertex="1">
          <mxGeometry y="26" width="90" height="26" as="geometry" />
        </mxCell>
        <mxCell id="kWJayBoJ60m9TDrZzvdE-107" value="Release" style="swimlane;fontStyle=0;childLayout=stackLayout;horizontal=1;startSize=26;fillColor=#CCFFE6;horizontalStack=0;resizeParent=1;resizeParentMax=0;resizeLast=0;collapsible=1;marginBottom=0;" parent="1" vertex="1" collapsed="1">
          <mxGeometry x="545" y="1670" width="80" height="26" as="geometry">
            <mxRectangle x="530" y="1659" width="110" height="52" as="alternateBounds" />
          </mxGeometry>
        </mxCell>
        <mxCell id="kWJayBoJ60m9TDrZzvdE-108" value="release_phase.md" style="text;strokeColor=none;fillColor=none;align=left;verticalAlign=top;spacingLeft=4;spacingRight=4;overflow=hidden;rotatable=0;points=[[0,0.5],[1,0.5]];portConstraint=eastwest;" parent="kWJayBoJ60m9TDrZzvdE-107" vertex="1">
          <mxGeometry y="26" width="80" height="26" as="geometry" />
        </mxCell>
        <mxCell id="kWJayBoJ60m9TDrZzvdE-109" value="Operation" style="swimlane;fontStyle=0;childLayout=stackLayout;horizontal=1;startSize=26;fillColor=#FFFFCC;horizontalStack=0;resizeParent=1;resizeParentMax=0;resizeLast=0;collapsible=1;marginBottom=0;" parent="1" vertex="1" collapsed="1">
          <mxGeometry x="540" y="1789.5" width="90" height="26" as="geometry">
            <mxRectangle x="530" y="1777" width="120" height="52" as="alternateBounds" />
          </mxGeometry>
        </mxCell>
        <mxCell id="kWJayBoJ60m9TDrZzvdE-110" value="operation_phase.md" style="text;strokeColor=none;fillColor=none;align=left;verticalAlign=top;spacingLeft=4;spacingRight=4;overflow=hidden;rotatable=0;points=[[0,0.5],[1,0.5]];portConstraint=eastwest;" parent="kWJayBoJ60m9TDrZzvdE-109" vertex="1">
          <mxGeometry y="26" width="90" height="26" as="geometry" />
        </mxCell>
        <mxCell id="kWJayBoJ60m9TDrZzvdE-111" value="Decommissioning" style="swimlane;fontStyle=0;childLayout=stackLayout;horizontal=1;startSize=26;fillColor=#FFFFCC;horizontalStack=0;resizeParent=1;resizeParentMax=0;resizeLast=0;collapsible=1;marginBottom=0;" parent="1" vertex="1" collapsed="1">
          <mxGeometry x="520" y="1889" width="130" height="26" as="geometry">
            <mxRectangle x="505" y="1889" width="170" height="52" as="alternateBounds" />
          </mxGeometry>
        </mxCell>
        <mxCell id="kWJayBoJ60m9TDrZzvdE-112" value="decommissioning_phase.md" style="text;strokeColor=none;fillColor=none;align=left;verticalAlign=top;spacingLeft=4;spacingRight=4;overflow=hidden;rotatable=0;points=[[0,0.5],[1,0.5]];portConstraint=eastwest;" parent="kWJayBoJ60m9TDrZzvdE-111" vertex="1">
          <mxGeometry y="26" width="130" height="26" as="geometry" />
        </mxCell>
        <mxCell id="kWJayBoJ60m9TDrZzvdE-52" value="Product Development" style="swimlane;fontStyle=0;childLayout=stackLayout;horizontal=1;startSize=26;fillColor=none;horizontalStack=0;resizeParent=1;resizeParentMax=0;resizeLast=0;collapsible=1;marginBottom=0;" parent="1" vertex="1">
          <mxGeometry x="130" y="1417" width="150" height="52" as="geometry" />
        </mxCell>
        <mxCell id="kWJayBoJ60m9TDrZzvdE-53" value="&#39;434-10" style="text;strokeColor=none;fillColor=none;align=left;verticalAlign=top;spacingLeft=4;spacingRight=4;overflow=hidden;rotatable=0;points=[[0,0.5],[1,0.5]];portConstraint=eastwest;" parent="kWJayBoJ60m9TDrZzvdE-52" vertex="1">
          <mxGeometry y="26" width="150" height="26" as="geometry" />
        </mxCell>
        <mxCell id="kWJayBoJ60m9TDrZzvdE-90" value="Cybersecurity Validation" style="swimlane;fontStyle=0;childLayout=stackLayout;horizontal=1;startSize=26;fillColor=none;horizontalStack=0;resizeParent=1;resizeParentMax=0;resizeLast=0;collapsible=1;marginBottom=0;" parent="1" vertex="1">
          <mxGeometry x="131" y="1525" width="149" height="52" as="geometry">
            <mxRectangle x="742" y="320" width="130" height="26" as="alternateBounds" />
          </mxGeometry>
        </mxCell>
        <mxCell id="kWJayBoJ60m9TDrZzvdE-91" value="&#39;434-11" style="text;strokeColor=none;fillColor=none;align=left;verticalAlign=top;spacingLeft=4;spacingRight=4;overflow=hidden;rotatable=0;points=[[0,0.5],[1,0.5]];portConstraint=eastwest;" parent="kWJayBoJ60m9TDrZzvdE-90" vertex="1">
          <mxGeometry y="26" width="149" height="26" as="geometry" />
        </mxCell>
        <mxCell id="kWJayBoJ60m9TDrZzvdE-104" value="Production" style="swimlane;fontStyle=0;childLayout=stackLayout;horizontal=1;startSize=26;fillColor=none;horizontalStack=0;resizeParent=1;resizeParentMax=0;resizeLast=0;collapsible=1;marginBottom=0;" parent="1" vertex="1">
          <mxGeometry x="170" y="1659" width="110" height="52" as="geometry" />
        </mxCell>
        <mxCell id="kWJayBoJ60m9TDrZzvdE-105" value="&#39;434-12" style="text;strokeColor=none;fillColor=none;align=left;verticalAlign=top;spacingLeft=4;spacingRight=4;overflow=hidden;rotatable=0;points=[[0,0.5],[1,0.5]];portConstraint=eastwest;" parent="kWJayBoJ60m9TDrZzvdE-104" vertex="1">
          <mxGeometry y="26" width="110" height="26" as="geometry" />
        </mxCell>
        <mxCell id="kWJayBoJ60m9TDrZzvdE-98" value="Operations and Maintenance" style="swimlane;fontStyle=0;childLayout=stackLayout;horizontal=1;startSize=26;fillColor=none;horizontalStack=0;resizeParent=1;resizeParentMax=0;resizeLast=0;collapsible=1;marginBottom=0;" parent="1" vertex="1">
          <mxGeometry x="90" y="1778.5" width="190" height="52" as="geometry">
            <mxRectangle x="742" y="320" width="130" height="26" as="alternateBounds" />
          </mxGeometry>
        </mxCell>
        <mxCell id="kWJayBoJ60m9TDrZzvdE-99" value="&#39;434-13" style="text;strokeColor=none;fillColor=none;align=left;verticalAlign=top;spacingLeft=4;spacingRight=4;overflow=hidden;rotatable=0;points=[[0,0.5],[1,0.5]];portConstraint=eastwest;" parent="kWJayBoJ60m9TDrZzvdE-98" vertex="1">
          <mxGeometry y="26" width="190" height="26" as="geometry" />
        </mxCell>
        <mxCell id="kWJayBoJ60m9TDrZzvdE-101" value="EoS and Decommissioning" style="swimlane;fontStyle=0;childLayout=stackLayout;horizontal=1;startSize=26;fillColor=none;horizontalStack=0;resizeParent=1;resizeParentMax=0;resizeLast=0;collapsible=1;marginBottom=0;" parent="1" vertex="1">
          <mxGeometry x="90" y="1876" width="190" height="52" as="geometry">
            <mxRectangle x="742" y="320" width="130" height="26" as="alternateBounds" />
          </mxGeometry>
        </mxCell>
        <mxCell id="kWJayBoJ60m9TDrZzvdE-102" value="&#39;434-14" style="text;strokeColor=none;fillColor=none;align=left;verticalAlign=top;spacingLeft=4;spacingRight=4;overflow=hidden;rotatable=0;points=[[0,0.5],[1,0.5]];portConstraint=eastwest;" parent="kWJayBoJ60m9TDrZzvdE-101" vertex="1">
          <mxGeometry y="26" width="190" height="26" as="geometry" />
        </mxCell>
        <mxCell id="kWJayBoJ60m9TDrZzvdE-70" value="Protect Software" style="swimlane;fontStyle=0;childLayout=stackLayout;horizontal=1;startSize=26;fillColor=none;horizontalStack=0;resizeParent=1;resizeParentMax=0;resizeLast=0;collapsible=1;marginBottom=0;" parent="1" vertex="1">
          <mxGeometry x="740" y="930" width="157" height="52" as="geometry">
            <mxRectangle x="742" y="320" width="130" height="26" as="alternateBounds" />
          </mxGeometry>
        </mxCell>
        <mxCell id="kWJayBoJ60m9TDrZzvdE-71" value="SSDF-PS" style="text;strokeColor=none;fillColor=none;align=left;verticalAlign=top;spacingLeft=4;spacingRight=4;overflow=hidden;rotatable=0;points=[[0,0.5],[1,0.5]];portConstraint=eastwest;" parent="kWJayBoJ60m9TDrZzvdE-70" vertex="1">
          <mxGeometry y="26" width="157" height="26" as="geometry" />
        </mxCell>
        <mxCell id="kWJayBoJ60m9TDrZzvdE-84" value="Prepare the Organization" style="swimlane;fontStyle=0;childLayout=stackLayout;horizontal=1;startSize=26;fillColor=#FFFFFF;horizontalStack=0;resizeParent=1;resizeParentMax=0;resizeLast=0;collapsible=1;marginBottom=0;" parent="1" vertex="1">
          <mxGeometry x="740" y="1062" width="170" height="52" as="geometry" />
        </mxCell>
        <mxCell id="kWJayBoJ60m9TDrZzvdE-85" value="SSDF-PO" style="text;strokeColor=none;fillColor=#FFFFFF;align=left;verticalAlign=top;spacingLeft=4;spacingRight=4;overflow=hidden;rotatable=0;points=[[0,0.5],[1,0.5]];portConstraint=eastwest;" parent="kWJayBoJ60m9TDrZzvdE-84" vertex="1">
          <mxGeometry y="26" width="170" height="26" as="geometry" />
        </mxCell>
        <mxCell id="kWJayBoJ60m9TDrZzvdE-57" value="Produce Well-Secured Software" style="swimlane;fontStyle=0;childLayout=stackLayout;horizontal=1;startSize=26;horizontalStack=0;resizeParent=1;resizeParentMax=0;resizeLast=0;collapsible=1;marginBottom=0;" parent="1" vertex="1">
          <mxGeometry x="740" y="1469" width="200" height="52" as="geometry" />
        </mxCell>
        <mxCell id="kWJayBoJ60m9TDrZzvdE-58" value="SSDF-PW" style="text;align=left;verticalAlign=top;spacingLeft=4;spacingRight=4;overflow=hidden;rotatable=0;points=[[0,0.5],[1,0.5]];portConstraint=eastwest;fillColor=#ffffff;" parent="kWJayBoJ60m9TDrZzvdE-57" vertex="1">
          <mxGeometry y="26" width="200" height="26" as="geometry" />
        </mxCell>
        <mxCell id="kWJayBoJ60m9TDrZzvdE-113" value="Respond to Vulnerability Reports" style="swimlane;fontStyle=0;childLayout=stackLayout;horizontal=1;startSize=26;fillColor=none;horizontalStack=0;resizeParent=1;resizeParentMax=0;resizeLast=0;collapsible=1;marginBottom=0;" parent="1" vertex="1">
          <mxGeometry x="740" y="1711" width="210" height="52" as="geometry">
            <mxRectangle x="742" y="320" width="130" height="26" as="alternateBounds" />
          </mxGeometry>
        </mxCell>
        <mxCell id="kWJayBoJ60m9TDrZzvdE-114" value="SSDF-RV" style="text;strokeColor=none;fillColor=none;align=left;verticalAlign=top;spacingLeft=4;spacingRight=4;overflow=hidden;rotatable=0;points=[[0,0.5],[1,0.5]];portConstraint=eastwest;" parent="kWJayBoJ60m9TDrZzvdE-113" vertex="1">
          <mxGeometry y="26" width="210" height="26" as="geometry" />
        </mxCell>
        <mxCell id="kWJayBoJ60m9TDrZzvdE-81" value="Training Phase" style="swimlane;fontStyle=0;childLayout=stackLayout;horizontal=1;startSize=26;fillColor=none;horizontalStack=0;resizeParent=1;resizeParentMax=0;resizeLast=0;collapsible=1;marginBottom=0;" parent="1" vertex="1">
          <mxGeometry x="971.5" y="1000" width="110" height="52" as="geometry" />
        </mxCell>
        <mxCell id="kWJayBoJ60m9TDrZzvdE-82" value="MSSDL P1" style="text;strokeColor=none;fillColor=none;align=left;verticalAlign=top;spacingLeft=4;spacingRight=4;overflow=hidden;rotatable=0;points=[[0,0.5],[1,0.5]];portConstraint=eastwest;" parent="kWJayBoJ60m9TDrZzvdE-81" vertex="1">
          <mxGeometry y="26" width="110" height="26" as="geometry" />
        </mxCell>
        <mxCell id="kWJayBoJ60m9TDrZzvdE-76" value="Requirements Phase" style="swimlane;fontStyle=0;childLayout=stackLayout;horizontal=1;startSize=26;fillColor=none;horizontalStack=0;resizeParent=1;resizeParentMax=0;resizeLast=0;collapsible=1;marginBottom=0;" parent="1" vertex="1">
          <mxGeometry x="971.5" y="1149" width="140" height="52" as="geometry">
            <mxRectangle x="742" y="320" width="130" height="26" as="alternateBounds" />
          </mxGeometry>
        </mxCell>
        <mxCell id="kWJayBoJ60m9TDrZzvdE-77" value="MSSDL P2-4" style="text;strokeColor=none;fillColor=none;align=left;verticalAlign=top;spacingLeft=4;spacingRight=4;overflow=hidden;rotatable=0;points=[[0,0.5],[1,0.5]];portConstraint=eastwest;" parent="kWJayBoJ60m9TDrZzvdE-76" vertex="1">
          <mxGeometry y="26" width="140" height="26" as="geometry" />
        </mxCell>
        <mxCell id="kWJayBoJ60m9TDrZzvdE-73" value="Design Phase" style="swimlane;fontStyle=0;childLayout=stackLayout;horizontal=1;startSize=26;fillColor=none;horizontalStack=0;resizeParent=1;resizeParentMax=0;resizeLast=0;collapsible=1;marginBottom=0;" parent="1" vertex="1">
          <mxGeometry x="970" y="1276.5" width="106.50000000000026" height="52" as="geometry">
            <mxRectangle x="742" y="320" width="130" height="26" as="alternateBounds" />
          </mxGeometry>
        </mxCell>
        <mxCell id="kWJayBoJ60m9TDrZzvdE-74" value="MSSDL P5-7" style="text;strokeColor=none;fillColor=none;align=left;verticalAlign=top;spacingLeft=4;spacingRight=4;overflow=hidden;rotatable=0;points=[[0,0.5],[1,0.5]];portConstraint=eastwest;" parent="kWJayBoJ60m9TDrZzvdE-73" vertex="1">
          <mxGeometry y="26" width="106.50000000000026" height="26" as="geometry" />
        </mxCell>
        <mxCell id="kWJayBoJ60m9TDrZzvdE-60" value="Implementation Phase" style="swimlane;fontStyle=0;childLayout=stackLayout;horizontal=1;startSize=26;fillColor=none;horizontalStack=0;resizeParent=1;resizeParentMax=0;resizeLast=0;collapsible=1;marginBottom=0;" parent="1" vertex="1">
          <mxGeometry x="970" y="1417.9999999999998" width="157.5" height="52" as="geometry" />
        </mxCell>
        <mxCell id="kWJayBoJ60m9TDrZzvdE-61" value="MSSDL P8-10" style="text;strokeColor=none;fillColor=none;align=left;verticalAlign=top;spacingLeft=4;spacingRight=4;overflow=hidden;rotatable=0;points=[[0,0.5],[1,0.5]];portConstraint=eastwest;" parent="kWJayBoJ60m9TDrZzvdE-60" vertex="1">
          <mxGeometry y="26" width="157.5" height="26" as="geometry" />
        </mxCell>
        <mxCell id="kWJayBoJ60m9TDrZzvdE-95" value="Verification Phase" style="swimlane;fontStyle=0;childLayout=stackLayout;horizontal=1;startSize=26;fillColor=#FFFFFF;horizontalStack=0;resizeParent=1;resizeParentMax=0;resizeLast=0;collapsible=1;marginBottom=0;" parent="1" vertex="1">
          <mxGeometry x="970" y="1522.9999999999998" width="133.00000000000026" height="52" as="geometry" />
        </mxCell>
        <mxCell id="kWJayBoJ60m9TDrZzvdE-96" value="MSSDL P11-13" style="text;strokeColor=none;fillColor=none;align=left;verticalAlign=top;spacingLeft=4;spacingRight=4;overflow=hidden;rotatable=0;points=[[0,0.5],[1,0.5]];portConstraint=eastwest;" parent="kWJayBoJ60m9TDrZzvdE-95" vertex="1">
          <mxGeometry y="26" width="133.00000000000026" height="26" as="geometry" />
        </mxCell>
        <mxCell id="kWJayBoJ60m9TDrZzvdE-116" value="Release Phase" style="swimlane;fontStyle=0;childLayout=stackLayout;horizontal=1;startSize=26;fillColor=none;horizontalStack=0;resizeParent=1;resizeParentMax=0;resizeLast=0;collapsible=1;marginBottom=0;" parent="1" vertex="1">
          <mxGeometry x="973.7499999999995" y="1656.9999999999998" width="116.5" height="52" as="geometry">
            <mxRectangle x="742" y="320" width="130" height="26" as="alternateBounds" />
          </mxGeometry>
        </mxCell>
        <mxCell id="kWJayBoJ60m9TDrZzvdE-117" value="MSSDL P14-16" style="text;strokeColor=none;fillColor=none;align=left;verticalAlign=top;spacingLeft=4;spacingRight=4;overflow=hidden;rotatable=0;points=[[0,0.5],[1,0.5]];portConstraint=eastwest;" parent="kWJayBoJ60m9TDrZzvdE-116" vertex="1">
          <mxGeometry y="26" width="116.5" height="26" as="geometry" />
        </mxCell>
        <mxCell id="kWJayBoJ60m9TDrZzvdE-119" value="Response Phase" style="swimlane;fontStyle=0;childLayout=stackLayout;horizontal=1;startSize=26;fillColor=none;horizontalStack=0;resizeParent=1;resizeParentMax=0;resizeLast=0;collapsible=1;marginBottom=0;" parent="1" vertex="1">
          <mxGeometry x="973.7500000000002" y="1776.4999999999998" width="120" height="52" as="geometry" />
        </mxCell>
        <mxCell id="0PJl06LNYAqkFBzq1kRk-1" value="none" style="text;strokeColor=none;fillColor=none;align=left;verticalAlign=top;spacingLeft=4;spacingRight=4;overflow=hidden;rotatable=0;points=[[0,0.5],[1,0.5]];portConstraint=eastwest;" parent="kWJayBoJ60m9TDrZzvdE-119" vertex="1">
          <mxGeometry y="26" width="120" height="26" as="geometry" />
        </mxCell>
      </root>
    </mxGraphModel>
  </diagram>
  <diagram name="horizontal" id="CzXm-rB-azETbOcz7ogY">
    <mxGraphModel dx="2138" dy="1384" grid="1" gridSize="10" guides="1" tooltips="1" connect="1" arrows="1" fold="1" page="0" pageScale="1" pageWidth="1169" pageHeight="827" math="0" shadow="0">
      <root>
        <mxCell id="4ajDwLhojrHfBsYweVD0-0" />
        <mxCell id="4ajDwLhojrHfBsYweVD0-1" parent="4ajDwLhojrHfBsYweVD0-0" />
        <mxCell id="4ajDwLhojrHfBsYweVD0-2" value="&lt;font style=&quot;font-size: 24px&quot;&gt;&amp;nbsp; 4 - 6&lt;/font&gt;" style="rounded=1;whiteSpace=wrap;html=1;fillColor=none;strokeColor=#FF3333;" vertex="1" parent="4ajDwLhojrHfBsYweVD0-1">
          <mxGeometry x="849" y="340" width="340" height="70" as="geometry" />
        </mxCell>
        <mxCell id="4ajDwLhojrHfBsYweVD0-3" value="&lt;font style=&quot;font-size: 24px&quot;&gt;3&lt;/font&gt;" style="rounded=1;whiteSpace=wrap;html=1;fillColor=none;strokeColor=#FF3333;" vertex="1" parent="4ajDwLhojrHfBsYweVD0-1">
          <mxGeometry x="430" y="340" width="330" height="70" as="geometry" />
        </mxCell>
        <mxCell id="4ajDwLhojrHfBsYweVD0-4" style="edgeStyle=none;rounded=0;orthogonalLoop=1;jettySize=auto;html=1;entryX=0.5;entryY=1;entryDx=0;entryDy=0;exitX=0.5;exitY=0;exitDx=0;exitDy=0;" edge="1" parent="4ajDwLhojrHfBsYweVD0-1" source="4ajDwLhojrHfBsYweVD0-89" target="4ajDwLhojrHfBsYweVD0-66">
          <mxGeometry relative="1" as="geometry">
            <mxPoint x="249.72000000000003" y="411.66200000000003" as="targetPoint" />
          </mxGeometry>
        </mxCell>
        <mxCell id="4ajDwLhojrHfBsYweVD0-5" style="edgeStyle=none;rounded=0;orthogonalLoop=1;jettySize=auto;html=1;entryX=0.5;entryY=0;entryDx=0;entryDy=0;strokeColor=#0000CC;exitX=0.5;exitY=1;exitDx=0;exitDy=0;exitPerimeter=0;" edge="1" parent="4ajDwLhojrHfBsYweVD0-1" source="4ajDwLhojrHfBsYweVD0-46" target="4ajDwLhojrHfBsYweVD0-84">
          <mxGeometry relative="1" as="geometry">
            <mxPoint x="245" y="146" as="sourcePoint" />
            <mxPoint x="1900.9900000000002" y="496.9839999999999" as="targetPoint" />
          </mxGeometry>
        </mxCell>
        <mxCell id="4ajDwLhojrHfBsYweVD0-6" value="&lt;font style=&quot;font-size: 24px&quot;&gt;7&amp;nbsp; &amp;nbsp; &amp;nbsp; &amp;nbsp; &amp;nbsp; &amp;nbsp; &amp;nbsp; &amp;nbsp; &amp;nbsp; &amp;nbsp; &amp;nbsp; &amp;nbsp; &amp;nbsp; &amp;nbsp; &amp;nbsp; &amp;nbsp; 7&amp;nbsp; &amp;nbsp; &amp;nbsp; &amp;nbsp;&amp;nbsp;&lt;/font&gt;" style="rounded=1;whiteSpace=wrap;html=1;fillColor=none;strokeColor=#FF3333;" vertex="1" parent="4ajDwLhojrHfBsYweVD0-1">
          <mxGeometry x="1239" y="340" width="590" height="70" as="geometry" />
        </mxCell>
        <mxCell id="4ajDwLhojrHfBsYweVD0-7" style="edgeStyle=none;rounded=0;orthogonalLoop=1;jettySize=auto;html=1;entryX=0.5;entryY=1;entryDx=0;entryDy=0;strokeColor=#CC6600;exitX=0.5;exitY=0;exitDx=0;exitDy=0;" edge="1" parent="4ajDwLhojrHfBsYweVD0-1" source="4ajDwLhojrHfBsYweVD0-69" target="4ajDwLhojrHfBsYweVD0-66">
          <mxGeometry relative="1" as="geometry">
            <mxPoint x="250.1400000000001" y="412.28600000000006" as="targetPoint" />
          </mxGeometry>
        </mxCell>
        <mxCell id="4ajDwLhojrHfBsYweVD0-8" style="edgeStyle=none;rounded=0;orthogonalLoop=1;jettySize=auto;html=1;entryX=0.5;entryY=1;entryDx=0;entryDy=0;strokeColor=#CC6600;exitX=0.5;exitY=0;exitDx=0;exitDy=0;" edge="1" parent="4ajDwLhojrHfBsYweVD0-1" source="4ajDwLhojrHfBsYweVD0-69" target="4ajDwLhojrHfBsYweVD0-58">
          <mxGeometry relative="1" as="geometry">
            <mxPoint x="508.0799999999999" y="411.71399999999994" as="targetPoint" />
          </mxGeometry>
        </mxCell>
        <mxCell id="4ajDwLhojrHfBsYweVD0-9" style="edgeStyle=none;rounded=0;orthogonalLoop=1;jettySize=auto;html=1;entryX=0.5;entryY=1;entryDx=0;entryDy=0;strokeColor=#CC6600;exitX=0.5;exitY=0;exitDx=0;exitDy=0;" edge="1" parent="4ajDwLhojrHfBsYweVD0-1" source="4ajDwLhojrHfBsYweVD0-60" target="4ajDwLhojrHfBsYweVD0-66">
          <mxGeometry relative="1" as="geometry">
            <mxPoint x="249.57999999999993" y="411.71399999999994" as="targetPoint" />
          </mxGeometry>
        </mxCell>
        <mxCell id="4ajDwLhojrHfBsYweVD0-10" value="Foundational&amp;nbsp; &amp;nbsp; &amp;nbsp; &amp;nbsp; &amp;nbsp;&amp;nbsp;" style="text;html=1;resizable=0;autosize=1;align=left;verticalAlign=middle;points=[];fillColor=#CCE5FF;strokeColor=#000000;rounded=0;" vertex="1" parent="4ajDwLhojrHfBsYweVD0-1">
          <mxGeometry x="1930" y="702" width="120" height="20" as="geometry" />
        </mxCell>
        <mxCell id="4ajDwLhojrHfBsYweVD0-11" value="Developmental&amp;nbsp; &amp;nbsp; &amp;nbsp; &amp;nbsp;" style="text;html=1;resizable=0;autosize=1;align=left;verticalAlign=middle;points=[];fillColor=#CCFFE6;strokeColor=#000000;rounded=0;" vertex="1" parent="4ajDwLhojrHfBsYweVD0-1">
          <mxGeometry x="1930" y="722" width="120" height="20" as="geometry" />
        </mxCell>
        <mxCell id="4ajDwLhojrHfBsYweVD0-12" value="Post-developmental" style="text;html=1;resizable=0;autosize=1;align=left;verticalAlign=middle;points=[];fillColor=#FFFFCC;strokeColor=#000000;rounded=0;" vertex="1" parent="4ajDwLhojrHfBsYweVD0-1">
          <mxGeometry x="1930" y="742" width="120" height="20" as="geometry" />
        </mxCell>
        <mxCell id="4ajDwLhojrHfBsYweVD0-13" value="General&amp;nbsp; &amp;nbsp; &amp;nbsp; &amp;nbsp; &amp;nbsp; &amp;nbsp; &amp;nbsp; &amp;nbsp; &amp;nbsp;&amp;nbsp;" style="text;html=1;resizable=0;autosize=1;align=left;verticalAlign=middle;points=[];rounded=0;strokeColor=#000000;" vertex="1" parent="4ajDwLhojrHfBsYweVD0-1">
          <mxGeometry x="1930" y="682" width="120" height="20" as="geometry" />
        </mxCell>
        <mxCell id="4ajDwLhojrHfBsYweVD0-14" style="edgeStyle=none;rounded=0;orthogonalLoop=1;jettySize=auto;html=1;strokeColor=#CC6600;entryX=0.5;entryY=1;entryDx=0;entryDy=0;exitX=0.5;exitY=0;exitDx=0;exitDy=0;" edge="1" parent="4ajDwLhojrHfBsYweVD0-1" source="4ajDwLhojrHfBsYweVD0-52" target="4ajDwLhojrHfBsYweVD0-59">
          <mxGeometry relative="1" as="geometry">
            <mxPoint x="700.0000000000007" y="411.71399999999994" as="targetPoint" />
          </mxGeometry>
        </mxCell>
        <mxCell id="4ajDwLhojrHfBsYweVD0-15" style="edgeStyle=none;rounded=0;orthogonalLoop=1;jettySize=auto;html=1;entryX=0.5;entryY=1;entryDx=0;entryDy=0;strokeColor=#CC6600;exitX=0.5;exitY=0;exitDx=0;exitDy=0;" edge="1" parent="4ajDwLhojrHfBsYweVD0-1" source="4ajDwLhojrHfBsYweVD0-52" target="4ajDwLhojrHfBsYweVD0-51">
          <mxGeometry relative="1" as="geometry">
            <mxPoint x="999.1599999999999" y="412.28600000000006" as="targetPoint" />
          </mxGeometry>
        </mxCell>
        <mxCell id="4ajDwLhojrHfBsYweVD0-16" style="edgeStyle=none;rounded=0;orthogonalLoop=1;jettySize=auto;html=1;entryX=0.5;entryY=1;entryDx=0;entryDy=0;strokeColor=#CC6600;exitX=0.5;exitY=0;exitDx=0;exitDy=0;" edge="1" parent="4ajDwLhojrHfBsYweVD0-1" source="4ajDwLhojrHfBsYweVD0-52" target="4ajDwLhojrHfBsYweVD0-75">
          <mxGeometry relative="1" as="geometry">
            <mxPoint x="1222.4799999999996" y="411.71399999999994" as="targetPoint" />
          </mxGeometry>
        </mxCell>
        <mxCell id="4ajDwLhojrHfBsYweVD0-17" style="edgeStyle=none;rounded=0;orthogonalLoop=1;jettySize=auto;html=1;entryX=0.5;entryY=1;entryDx=0;entryDy=0;" edge="1" parent="4ajDwLhojrHfBsYweVD0-1" source="4ajDwLhojrHfBsYweVD0-67" target="4ajDwLhojrHfBsYweVD0-66">
          <mxGeometry relative="1" as="geometry">
            <mxPoint x="250.55999999999995" y="411.9480000000001" as="targetPoint" />
          </mxGeometry>
        </mxCell>
        <mxCell id="4ajDwLhojrHfBsYweVD0-18" style="edgeStyle=none;rounded=0;orthogonalLoop=1;jettySize=auto;html=1;entryX=0.5;entryY=1;entryDx=0;entryDy=0;" edge="1" parent="4ajDwLhojrHfBsYweVD0-1" source="4ajDwLhojrHfBsYweVD0-62" target="4ajDwLhojrHfBsYweVD0-59">
          <mxGeometry relative="1" as="geometry">
            <mxPoint x="700.0000000000007" y="411.71399999999994" as="targetPoint" />
          </mxGeometry>
        </mxCell>
        <mxCell id="4ajDwLhojrHfBsYweVD0-19" style="edgeStyle=none;rounded=0;orthogonalLoop=1;jettySize=auto;html=1;entryX=0.5;entryY=1;entryDx=0;entryDy=0;" edge="1" parent="4ajDwLhojrHfBsYweVD0-1" source="4ajDwLhojrHfBsYweVD0-54" target="4ajDwLhojrHfBsYweVD0-51">
          <mxGeometry relative="1" as="geometry" />
        </mxCell>
        <mxCell id="4ajDwLhojrHfBsYweVD0-20" style="edgeStyle=none;rounded=0;orthogonalLoop=1;jettySize=auto;html=1;entryX=0.5;entryY=1;entryDx=0;entryDy=0;" edge="1" parent="4ajDwLhojrHfBsYweVD0-1" source="4ajDwLhojrHfBsYweVD0-76" target="4ajDwLhojrHfBsYweVD0-75">
          <mxGeometry relative="1" as="geometry">
            <mxPoint x="1122.4799999999996" y="410.8299999999999" as="targetPoint" />
          </mxGeometry>
        </mxCell>
        <mxCell id="4ajDwLhojrHfBsYweVD0-21" style="edgeStyle=none;rounded=0;orthogonalLoop=1;jettySize=auto;html=1;entryX=0.5;entryY=1;entryDx=0;entryDy=0;" edge="1" parent="4ajDwLhojrHfBsYweVD0-1" source="4ajDwLhojrHfBsYweVD0-89" target="4ajDwLhojrHfBsYweVD0-84">
          <mxGeometry relative="1" as="geometry" />
        </mxCell>
        <mxCell id="4ajDwLhojrHfBsYweVD0-22" style="edgeStyle=none;rounded=0;orthogonalLoop=1;jettySize=auto;html=1;entryX=0.5;entryY=1;entryDx=0;entryDy=0;" edge="1" parent="4ajDwLhojrHfBsYweVD0-1" source="4ajDwLhojrHfBsYweVD0-91" target="4ajDwLhojrHfBsYweVD0-85">
          <mxGeometry relative="1" as="geometry">
            <mxPoint x="1524.3400000000008" y="412" as="targetPoint" />
          </mxGeometry>
        </mxCell>
        <mxCell id="4ajDwLhojrHfBsYweVD0-23" style="edgeStyle=none;rounded=0;orthogonalLoop=1;jettySize=auto;html=1;entryX=0.5;entryY=1;entryDx=0;entryDy=0;" edge="1" parent="4ajDwLhojrHfBsYweVD0-1" source="4ajDwLhojrHfBsYweVD0-64" target="4ajDwLhojrHfBsYweVD0-58">
          <mxGeometry relative="1" as="geometry">
            <mxPoint x="508.5" y="412" as="targetPoint" />
          </mxGeometry>
        </mxCell>
        <mxCell id="4ajDwLhojrHfBsYweVD0-24" style="edgeStyle=none;rounded=0;orthogonalLoop=1;jettySize=auto;html=1;entryX=0.5;entryY=1;entryDx=0;entryDy=0;exitX=0.5;exitY=0;exitDx=0;exitDy=0;" edge="1" parent="4ajDwLhojrHfBsYweVD0-1" source="4ajDwLhojrHfBsYweVD0-64" target="4ajDwLhojrHfBsYweVD0-59">
          <mxGeometry relative="1" as="geometry">
            <mxPoint x="710.4600000000007" y="411.71399999999994" as="targetPoint" />
          </mxGeometry>
        </mxCell>
        <mxCell id="4ajDwLhojrHfBsYweVD0-25" style="edgeStyle=none;rounded=0;orthogonalLoop=1;jettySize=auto;html=1;entryX=0.5;entryY=1;entryDx=0;entryDy=0;strokeColor=#CC6600;exitX=0.5;exitY=0;exitDx=0;exitDy=0;" edge="1" parent="4ajDwLhojrHfBsYweVD0-1" source="4ajDwLhojrHfBsYweVD0-87" target="4ajDwLhojrHfBsYweVD0-85">
          <mxGeometry relative="1" as="geometry">
            <mxPoint x="1561.4700000000003" y="411.71399999999994" as="targetPoint" />
          </mxGeometry>
        </mxCell>
        <mxCell id="4ajDwLhojrHfBsYweVD0-26" style="edgeStyle=none;rounded=0;orthogonalLoop=1;jettySize=auto;html=1;entryX=0.5;entryY=0;entryDx=0;entryDy=0;strokeColor=#0000CC;exitX=0.5;exitY=1;exitDx=0;exitDy=0;" edge="1" parent="4ajDwLhojrHfBsYweVD0-1" source="4ajDwLhojrHfBsYweVD0-78" target="4ajDwLhojrHfBsYweVD0-66">
          <mxGeometry relative="1" as="geometry" />
        </mxCell>
        <mxCell id="4ajDwLhojrHfBsYweVD0-27" style="edgeStyle=none;rounded=0;orthogonalLoop=1;jettySize=auto;html=1;strokeColor=#0000CC;entryX=0.5;entryY=0;entryDx=0;entryDy=0;exitX=0.503;exitY=1;exitDx=0;exitDy=0;exitPerimeter=0;" edge="1" parent="4ajDwLhojrHfBsYweVD0-1" source="4ajDwLhojrHfBsYweVD0-81" target="4ajDwLhojrHfBsYweVD0-66">
          <mxGeometry relative="1" as="geometry">
            <mxPoint x="940" y="330" as="targetPoint" />
            <mxPoint x="1964.5500000000002" y="148" as="sourcePoint" />
          </mxGeometry>
        </mxCell>
        <mxCell id="4ajDwLhojrHfBsYweVD0-28" style="edgeStyle=none;rounded=0;orthogonalLoop=1;jettySize=auto;html=1;entryX=0.5;entryY=0;entryDx=0;entryDy=0;strokeColor=#0000CC;exitX=0.5;exitY=1;exitDx=0;exitDy=0;" edge="1" parent="4ajDwLhojrHfBsYweVD0-1" source="4ajDwLhojrHfBsYweVD0-43" target="4ajDwLhojrHfBsYweVD0-66">
          <mxGeometry relative="1" as="geometry">
            <mxPoint x="290" y="400" as="targetPoint" />
            <mxPoint x="492" y="130" as="sourcePoint" />
          </mxGeometry>
        </mxCell>
        <mxCell id="4ajDwLhojrHfBsYweVD0-29" style="edgeStyle=none;rounded=0;orthogonalLoop=1;jettySize=auto;html=1;entryX=0.574;entryY=-0.058;entryDx=0;entryDy=0;entryPerimeter=0;strokeColor=#0000CC;exitX=0.501;exitY=1;exitDx=0;exitDy=0;exitPerimeter=0;" edge="1" parent="4ajDwLhojrHfBsYweVD0-1" source="4ajDwLhojrHfBsYweVD0-44" target="4ajDwLhojrHfBsYweVD0-85">
          <mxGeometry relative="1" as="geometry">
            <mxPoint x="500" y="130" as="sourcePoint" />
          </mxGeometry>
        </mxCell>
        <mxCell id="4ajDwLhojrHfBsYweVD0-30" style="edgeStyle=none;rounded=0;orthogonalLoop=1;jettySize=auto;html=1;entryX=0.5;entryY=0;entryDx=0;entryDy=0;strokeColor=#0000CC;exitX=0.502;exitY=1;exitDx=0;exitDy=0;exitPerimeter=0;" edge="1" parent="4ajDwLhojrHfBsYweVD0-1" source="4ajDwLhojrHfBsYweVD0-72" target="4ajDwLhojrHfBsYweVD0-58">
          <mxGeometry relative="1" as="geometry">
            <mxPoint x="710.72" y="146.97399999999993" as="sourcePoint" />
          </mxGeometry>
        </mxCell>
        <mxCell id="4ajDwLhojrHfBsYweVD0-31" style="edgeStyle=none;rounded=0;orthogonalLoop=1;jettySize=auto;html=1;entryX=0.5;entryY=0;entryDx=0;entryDy=0;strokeColor=#0000CC;" edge="1" parent="4ajDwLhojrHfBsYweVD0-1" source="4ajDwLhojrHfBsYweVD0-71" target="4ajDwLhojrHfBsYweVD0-59">
          <mxGeometry relative="1" as="geometry" />
        </mxCell>
        <mxCell id="4ajDwLhojrHfBsYweVD0-32" style="edgeStyle=none;rounded=0;orthogonalLoop=1;jettySize=auto;html=1;entryX=0.5;entryY=0;entryDx=0;entryDy=0;strokeColor=#0000CC;exitX=0.503;exitY=1;exitDx=0;exitDy=0;exitPerimeter=0;" edge="1" parent="4ajDwLhojrHfBsYweVD0-1" source="4ajDwLhojrHfBsYweVD0-57" target="4ajDwLhojrHfBsYweVD0-59">
          <mxGeometry relative="1" as="geometry">
            <mxPoint x="2204" y="147.98800000000006" as="sourcePoint" />
          </mxGeometry>
        </mxCell>
        <mxCell id="4ajDwLhojrHfBsYweVD0-33" style="edgeStyle=none;rounded=0;orthogonalLoop=1;jettySize=auto;html=1;entryX=0.5;entryY=0;entryDx=0;entryDy=0;strokeColor=#0000CC;" edge="1" parent="4ajDwLhojrHfBsYweVD0-1" source="4ajDwLhojrHfBsYweVD0-49" target="4ajDwLhojrHfBsYweVD0-51">
          <mxGeometry relative="1" as="geometry" />
        </mxCell>
        <mxCell id="4ajDwLhojrHfBsYweVD0-34" style="edgeStyle=none;rounded=0;orthogonalLoop=1;jettySize=auto;html=1;strokeColor=#0000CC;exitX=0.503;exitY=1;exitDx=0;exitDy=0;exitPerimeter=0;entryX=0.5;entryY=0;entryDx=0;entryDy=0;" edge="1" parent="4ajDwLhojrHfBsYweVD0-1" source="4ajDwLhojrHfBsYweVD0-50" target="4ajDwLhojrHfBsYweVD0-75">
          <mxGeometry relative="1" as="geometry">
            <mxPoint x="928.605" y="147.97399999999993" as="sourcePoint" />
          </mxGeometry>
        </mxCell>
        <mxCell id="4ajDwLhojrHfBsYweVD0-35" style="edgeStyle=none;rounded=0;orthogonalLoop=1;jettySize=auto;html=1;entryX=0.457;entryY=0;entryDx=0;entryDy=0;entryPerimeter=0;strokeColor=#0000CC;exitX=0.495;exitY=1;exitDx=0;exitDy=0;exitPerimeter=0;" edge="1" parent="4ajDwLhojrHfBsYweVD0-1" source="4ajDwLhojrHfBsYweVD0-50" target="4ajDwLhojrHfBsYweVD0-66">
          <mxGeometry relative="1" as="geometry">
            <mxPoint x="1009.605" y="147.97399999999993" as="sourcePoint" />
          </mxGeometry>
        </mxCell>
        <mxCell id="4ajDwLhojrHfBsYweVD0-36" style="edgeStyle=none;rounded=0;orthogonalLoop=1;jettySize=auto;html=1;strokeColor=#0000CC;" edge="1" parent="4ajDwLhojrHfBsYweVD0-1" source="4ajDwLhojrHfBsYweVD0-73" target="4ajDwLhojrHfBsYweVD0-75">
          <mxGeometry relative="1" as="geometry" />
        </mxCell>
        <mxCell id="4ajDwLhojrHfBsYweVD0-37" style="edgeStyle=none;rounded=0;orthogonalLoop=1;jettySize=auto;html=1;entryX=0.5;entryY=0;entryDx=0;entryDy=0;strokeColor=#0000CC;exitX=0.5;exitY=1;exitDx=0;exitDy=0;" edge="1" parent="4ajDwLhojrHfBsYweVD0-1" source="4ajDwLhojrHfBsYweVD0-73" target="4ajDwLhojrHfBsYweVD0-59">
          <mxGeometry relative="1" as="geometry" />
        </mxCell>
        <mxCell id="4ajDwLhojrHfBsYweVD0-38" style="edgeStyle=none;rounded=0;orthogonalLoop=1;jettySize=auto;html=1;entryX=0.5;entryY=0;entryDx=0;entryDy=0;strokeColor=#0000CC;" edge="1" parent="4ajDwLhojrHfBsYweVD0-1" source="4ajDwLhojrHfBsYweVD0-82" target="4ajDwLhojrHfBsYweVD0-84">
          <mxGeometry relative="1" as="geometry" />
        </mxCell>
        <mxCell id="4ajDwLhojrHfBsYweVD0-39" style="edgeStyle=none;rounded=0;orthogonalLoop=1;jettySize=auto;html=1;entryX=0.5;entryY=0;entryDx=0;entryDy=0;strokeColor=#0000CC;" edge="1" parent="4ajDwLhojrHfBsYweVD0-1" source="4ajDwLhojrHfBsYweVD0-78" target="4ajDwLhojrHfBsYweVD0-85">
          <mxGeometry relative="1" as="geometry">
            <mxPoint x="1690.4999999999998" y="168" as="sourcePoint" />
            <mxPoint x="1690.4999999999998" y="509.9999999999998" as="targetPoint" />
          </mxGeometry>
        </mxCell>
        <mxCell id="4ajDwLhojrHfBsYweVD0-40" value="&lt;font style=&quot;font-size: 12px&quot;&gt;ISO 26262&lt;/font&gt;" style="rounded=1;whiteSpace=wrap;html=1;fillColor=none;strokeColor=#FF3333;" vertex="1" parent="4ajDwLhojrHfBsYweVD0-1">
          <mxGeometry x="1930" y="654" width="120" height="20" as="geometry" />
        </mxCell>
        <mxCell id="4ajDwLhojrHfBsYweVD0-41" style="edgeStyle=none;rounded=0;orthogonalLoop=1;jettySize=auto;html=1;strokeColor=#0000CC;entryX=0.5;entryY=0;entryDx=0;entryDy=0;exitX=0.5;exitY=1;exitDx=0;exitDy=0;exitPerimeter=0;" edge="1" parent="4ajDwLhojrHfBsYweVD0-1" source="4ajDwLhojrHfBsYweVD0-46" target="4ajDwLhojrHfBsYweVD0-59">
          <mxGeometry relative="1" as="geometry">
            <mxPoint x="690" y="440" as="targetPoint" />
            <mxPoint x="240" y="122" as="sourcePoint" />
          </mxGeometry>
        </mxCell>
        <mxCell id="4ajDwLhojrHfBsYweVD0-42" style="edgeStyle=none;rounded=0;orthogonalLoop=1;jettySize=auto;html=1;strokeColor=#0000CC;exitX=0.486;exitY=1.083;exitDx=0;exitDy=0;exitPerimeter=0;entryX=0.5;entryY=0;entryDx=0;entryDy=0;" edge="1" parent="4ajDwLhojrHfBsYweVD0-1" source="4ajDwLhojrHfBsYweVD0-48" target="4ajDwLhojrHfBsYweVD0-66">
          <mxGeometry relative="1" as="geometry">
            <mxPoint x="536.0000000000005" y="384.0000000000001" as="targetPoint" />
            <mxPoint x="3.740000000000009" y="146.59799999999996" as="sourcePoint" />
          </mxGeometry>
        </mxCell>
        <mxCell id="4ajDwLhojrHfBsYweVD0-43" value="Continual Cybersecurity Activities" style="swimlane;fontStyle=0;childLayout=stackLayout;horizontal=1;startSize=26;fillColor=none;horizontalStack=0;resizeParent=1;resizeParentMax=0;resizeLast=0;collapsible=1;marginBottom=0;" vertex="1" parent="4ajDwLhojrHfBsYweVD0-1">
          <mxGeometry x="430" y="70" width="200" height="50" as="geometry" />
        </mxCell>
        <mxCell id="4ajDwLhojrHfBsYweVD0-44" value="&#39;434-8" style="text;strokeColor=none;fillColor=none;align=left;verticalAlign=top;spacingLeft=4;spacingRight=4;overflow=hidden;rotatable=0;points=[[0,0.5],[1,0.5]];portConstraint=eastwest;" vertex="1" parent="4ajDwLhojrHfBsYweVD0-43">
          <mxGeometry y="26" width="200" height="24" as="geometry" />
        </mxCell>
        <mxCell id="4ajDwLhojrHfBsYweVD0-45" value="Project Management" style="swimlane;fontStyle=0;childLayout=stackLayout;horizontal=1;startSize=26;fillColor=none;horizontalStack=0;resizeParent=1;resizeParentMax=0;resizeLast=0;collapsible=1;marginBottom=0;" vertex="1" parent="4ajDwLhojrHfBsYweVD0-1">
          <mxGeometry x="270" y="70" width="140" height="50" as="geometry">
            <mxRectangle x="742" y="320" width="130" height="26" as="alternateBounds" />
          </mxGeometry>
        </mxCell>
        <mxCell id="4ajDwLhojrHfBsYweVD0-46" value="&#39;434-6" style="text;strokeColor=none;fillColor=none;align=left;verticalAlign=top;spacingLeft=4;spacingRight=4;overflow=hidden;rotatable=0;points=[[0,0.5],[1,0.5]];portConstraint=eastwest;" vertex="1" parent="4ajDwLhojrHfBsYweVD0-45">
          <mxGeometry y="26" width="140" height="24" as="geometry" />
        </mxCell>
        <mxCell id="4ajDwLhojrHfBsYweVD0-47" value="Organizational Management" style="swimlane;fontStyle=0;childLayout=stackLayout;horizontal=1;startSize=26;fillColor=none;horizontalStack=0;resizeParent=1;resizeParentMax=0;resizeLast=0;collapsible=1;marginBottom=0;" vertex="1" parent="4ajDwLhojrHfBsYweVD0-1">
          <mxGeometry x="82" y="70" width="170" height="50" as="geometry">
            <mxRectangle x="742" y="320" width="130" height="26" as="alternateBounds" />
          </mxGeometry>
        </mxCell>
        <mxCell id="4ajDwLhojrHfBsYweVD0-48" value="&#39;434-5" style="text;strokeColor=none;fillColor=none;align=left;verticalAlign=top;spacingLeft=4;spacingRight=4;overflow=hidden;rotatable=0;points=[[0,0.5],[1,0.5]];portConstraint=eastwest;" vertex="1" parent="4ajDwLhojrHfBsYweVD0-47">
          <mxGeometry y="26" width="170" height="24" as="geometry" />
        </mxCell>
        <mxCell id="4ajDwLhojrHfBsYweVD0-49" value="Product Development" style="swimlane;fontStyle=0;childLayout=stackLayout;horizontal=1;startSize=26;fillColor=none;horizontalStack=0;resizeParent=1;resizeParentMax=0;resizeLast=0;collapsible=1;marginBottom=0;" vertex="1" parent="4ajDwLhojrHfBsYweVD0-1">
          <mxGeometry x="861" y="69" width="140" height="52" as="geometry" />
        </mxCell>
        <mxCell id="4ajDwLhojrHfBsYweVD0-50" value="&#39;434-10" style="text;strokeColor=none;fillColor=none;align=left;verticalAlign=top;spacingLeft=4;spacingRight=4;overflow=hidden;rotatable=0;points=[[0,0.5],[1,0.5]];portConstraint=eastwest;" vertex="1" parent="4ajDwLhojrHfBsYweVD0-49">
          <mxGeometry y="26" width="140" height="26" as="geometry" />
        </mxCell>
        <mxCell id="4ajDwLhojrHfBsYweVD0-51" value="Implementation" style="swimlane;fontStyle=0;childLayout=stackLayout;horizontal=1;startSize=26;fillColor=#CCFFE6;horizontalStack=0;resizeParent=1;resizeParentMax=0;resizeLast=0;collapsible=1;marginBottom=0;" vertex="1" collapsed="1" parent="4ajDwLhojrHfBsYweVD0-1">
          <mxGeometry x="876" y="360" width="110" height="26" as="geometry">
            <mxRectangle x="980" y="360" width="160" height="30" as="alternateBounds" />
          </mxGeometry>
        </mxCell>
        <mxCell id="4ajDwLhojrHfBsYweVD0-52" value="Produce Well-Secured Software" style="swimlane;fontStyle=0;childLayout=stackLayout;horizontal=1;startSize=26;horizontalStack=0;resizeParent=1;resizeParentMax=0;resizeLast=0;collapsible=1;marginBottom=0;" vertex="1" parent="4ajDwLhojrHfBsYweVD0-1">
          <mxGeometry x="719" y="480" width="190" height="52" as="geometry" />
        </mxCell>
        <mxCell id="4ajDwLhojrHfBsYweVD0-53" value="SSDF-PW" style="text;align=left;verticalAlign=top;spacingLeft=4;spacingRight=4;overflow=hidden;rotatable=0;points=[[0,0.5],[1,0.5]];portConstraint=eastwest;fillColor=#ffffff;" vertex="1" parent="4ajDwLhojrHfBsYweVD0-52">
          <mxGeometry y="26" width="190" height="26" as="geometry" />
        </mxCell>
        <mxCell id="4ajDwLhojrHfBsYweVD0-54" value="Implementation Phase" style="swimlane;fontStyle=0;childLayout=stackLayout;horizontal=1;startSize=26;fillColor=none;horizontalStack=0;resizeParent=1;resizeParentMax=0;resizeLast=0;collapsible=1;marginBottom=0;" vertex="1" parent="4ajDwLhojrHfBsYweVD0-1">
          <mxGeometry x="851.5" y="709.9999999999998" width="157.5" height="52" as="geometry" />
        </mxCell>
        <mxCell id="4ajDwLhojrHfBsYweVD0-55" value="MSSDL P8-10" style="text;strokeColor=none;fillColor=none;align=left;verticalAlign=top;spacingLeft=4;spacingRight=4;overflow=hidden;rotatable=0;points=[[0,0.5],[1,0.5]];portConstraint=eastwest;" vertex="1" parent="4ajDwLhojrHfBsYweVD0-54">
          <mxGeometry y="26" width="157.5" height="26" as="geometry" />
        </mxCell>
        <mxCell id="4ajDwLhojrHfBsYweVD0-56" value="Threat Analysis and Risk Assessment" style="swimlane;fontStyle=0;childLayout=stackLayout;horizontal=1;startSize=26;fillColor=none;horizontalStack=0;resizeParent=1;resizeParentMax=0;resizeLast=0;collapsible=1;marginBottom=0;" vertex="1" parent="4ajDwLhojrHfBsYweVD0-1">
          <mxGeometry x="1840" y="69" width="210" height="52" as="geometry" />
        </mxCell>
        <mxCell id="4ajDwLhojrHfBsYweVD0-57" value="&#39;434-15" style="text;strokeColor=none;fillColor=none;align=left;verticalAlign=top;spacingLeft=4;spacingRight=4;overflow=hidden;rotatable=0;points=[[0,0.5],[1,0.5]];portConstraint=eastwest;" vertex="1" parent="4ajDwLhojrHfBsYweVD0-56">
          <mxGeometry y="26" width="210" height="26" as="geometry" />
        </mxCell>
        <mxCell id="4ajDwLhojrHfBsYweVD0-58" value="Requirements" style="swimlane;fontStyle=0;childLayout=stackLayout;horizontal=1;startSize=26;fillColor=#CCFFE6;horizontalStack=0;resizeParent=1;resizeParentMax=0;resizeLast=0;collapsible=1;marginBottom=0;" vertex="1" collapsed="1" parent="4ajDwLhojrHfBsYweVD0-1">
          <mxGeometry x="453.5" y="360" width="110" height="26" as="geometry">
            <mxRectangle x="555" y="360" width="140" height="30" as="alternateBounds" />
          </mxGeometry>
        </mxCell>
        <mxCell id="4ajDwLhojrHfBsYweVD0-59" value="Design" style="swimlane;fontStyle=0;childLayout=stackLayout;horizontal=1;startSize=26;fillColor=#CCFFE6;horizontalStack=0;resizeParent=1;resizeParentMax=0;resizeLast=0;collapsible=1;marginBottom=0;" vertex="1" collapsed="1" parent="4ajDwLhojrHfBsYweVD0-1">
          <mxGeometry x="665" y="360" width="70" height="26" as="geometry">
            <mxRectangle x="777" y="360" width="108" height="30" as="alternateBounds" />
          </mxGeometry>
        </mxCell>
        <mxCell id="4ajDwLhojrHfBsYweVD0-60" value="Protect Software" style="swimlane;fontStyle=0;childLayout=stackLayout;horizontal=1;startSize=26;fillColor=none;horizontalStack=0;resizeParent=1;resizeParentMax=0;resizeLast=0;collapsible=1;marginBottom=0;" vertex="1" parent="4ajDwLhojrHfBsYweVD0-1">
          <mxGeometry x="180" y="480" width="117" height="52" as="geometry">
            <mxRectangle x="742" y="320" width="130" height="26" as="alternateBounds" />
          </mxGeometry>
        </mxCell>
        <mxCell id="4ajDwLhojrHfBsYweVD0-61" value="SSDF-PS" style="text;strokeColor=none;fillColor=none;align=left;verticalAlign=top;spacingLeft=4;spacingRight=4;overflow=hidden;rotatable=0;points=[[0,0.5],[1,0.5]];portConstraint=eastwest;" vertex="1" parent="4ajDwLhojrHfBsYweVD0-60">
          <mxGeometry y="26" width="117" height="26" as="geometry" />
        </mxCell>
        <mxCell id="4ajDwLhojrHfBsYweVD0-62" value="Design Phase" style="swimlane;fontStyle=0;childLayout=stackLayout;horizontal=1;startSize=26;fillColor=none;horizontalStack=0;resizeParent=1;resizeParentMax=0;resizeLast=0;collapsible=1;marginBottom=0;" vertex="1" parent="4ajDwLhojrHfBsYweVD0-1">
          <mxGeometry x="646.7500000000001" y="709.9999999999999" width="106.50000000000026" height="52" as="geometry">
            <mxRectangle x="742" y="320" width="130" height="26" as="alternateBounds" />
          </mxGeometry>
        </mxCell>
        <mxCell id="4ajDwLhojrHfBsYweVD0-63" value="MSSDL P5-7" style="text;strokeColor=none;fillColor=none;align=left;verticalAlign=top;spacingLeft=4;spacingRight=4;overflow=hidden;rotatable=0;points=[[0,0.5],[1,0.5]];portConstraint=eastwest;" vertex="1" parent="4ajDwLhojrHfBsYweVD0-62">
          <mxGeometry y="26" width="106.50000000000026" height="26" as="geometry" />
        </mxCell>
        <mxCell id="4ajDwLhojrHfBsYweVD0-64" value="Requirements Phase" style="swimlane;fontStyle=0;childLayout=stackLayout;horizontal=1;startSize=26;fillColor=none;horizontalStack=0;resizeParent=1;resizeParentMax=0;resizeLast=0;collapsible=1;marginBottom=0;" vertex="1" parent="4ajDwLhojrHfBsYweVD0-1">
          <mxGeometry x="438.5" y="709.9999999999999" width="140" height="52" as="geometry">
            <mxRectangle x="742" y="320" width="130" height="26" as="alternateBounds" />
          </mxGeometry>
        </mxCell>
        <mxCell id="4ajDwLhojrHfBsYweVD0-65" value="MSSDL P2-4" style="text;strokeColor=none;fillColor=none;align=left;verticalAlign=top;spacingLeft=4;spacingRight=4;overflow=hidden;rotatable=0;points=[[0,0.5],[1,0.5]];portConstraint=eastwest;" vertex="1" parent="4ajDwLhojrHfBsYweVD0-64">
          <mxGeometry y="26" width="140" height="26" as="geometry" />
        </mxCell>
        <mxCell id="4ajDwLhojrHfBsYweVD0-66" value="Foundation" style="swimlane;fontStyle=0;childLayout=stackLayout;horizontal=1;startSize=26;fillColor=#CCE5FF;horizontalStack=0;resizeParent=1;resizeParentMax=0;resizeLast=0;collapsible=1;marginBottom=0;" vertex="1" collapsed="1" parent="4ajDwLhojrHfBsYweVD0-1">
          <mxGeometry x="120" y="360" width="90" height="26" as="geometry">
            <mxRectangle x="300" y="360" width="140" height="30" as="alternateBounds" />
          </mxGeometry>
        </mxCell>
        <mxCell id="4ajDwLhojrHfBsYweVD0-67" value="Training Phase" style="swimlane;fontStyle=0;childLayout=stackLayout;horizontal=1;startSize=26;fillColor=none;horizontalStack=0;resizeParent=1;resizeParentMax=0;resizeLast=0;collapsible=1;marginBottom=0;" vertex="1" parent="4ajDwLhojrHfBsYweVD0-1">
          <mxGeometry x="110" y="709.9999999999999" width="110" height="52" as="geometry" />
        </mxCell>
        <mxCell id="4ajDwLhojrHfBsYweVD0-68" value="MSSDL P1" style="text;strokeColor=none;fillColor=none;align=left;verticalAlign=top;spacingLeft=4;spacingRight=4;overflow=hidden;rotatable=0;points=[[0,0.5],[1,0.5]];portConstraint=eastwest;" vertex="1" parent="4ajDwLhojrHfBsYweVD0-67">
          <mxGeometry y="26" width="110" height="26" as="geometry" />
        </mxCell>
        <mxCell id="4ajDwLhojrHfBsYweVD0-69" value="Prepare the Organization" style="swimlane;fontStyle=0;childLayout=stackLayout;horizontal=1;startSize=26;fillColor=#FFFFFF;horizontalStack=0;resizeParent=1;resizeParentMax=0;resizeLast=0;collapsible=1;marginBottom=0;" vertex="1" parent="4ajDwLhojrHfBsYweVD0-1">
          <mxGeometry x="330" y="480" width="150" height="52" as="geometry" />
        </mxCell>
        <mxCell id="4ajDwLhojrHfBsYweVD0-70" value="SSDF-PO" style="text;strokeColor=none;fillColor=#FFFFFF;align=left;verticalAlign=top;spacingLeft=4;spacingRight=4;overflow=hidden;rotatable=0;points=[[0,0.5],[1,0.5]];portConstraint=eastwest;" vertex="1" parent="4ajDwLhojrHfBsYweVD0-69">
          <mxGeometry y="26" width="150" height="26" as="geometry" />
        </mxCell>
        <mxCell id="4ajDwLhojrHfBsYweVD0-71" value="Concept" style="swimlane;fontStyle=0;childLayout=stackLayout;horizontal=1;startSize=26;fillColor=none;horizontalStack=0;resizeParent=1;resizeParentMax=0;resizeLast=0;collapsible=1;marginBottom=0;" vertex="1" parent="4ajDwLhojrHfBsYweVD0-1">
          <mxGeometry x="660" y="69" width="80" height="52" as="geometry">
            <mxRectangle x="742" y="320" width="130" height="26" as="alternateBounds" />
          </mxGeometry>
        </mxCell>
        <mxCell id="4ajDwLhojrHfBsYweVD0-72" value="&#39;434-9" style="text;strokeColor=none;fillColor=none;align=left;verticalAlign=top;spacingLeft=4;spacingRight=4;overflow=hidden;rotatable=0;points=[[0,0.5],[1,0.5]];portConstraint=eastwest;" vertex="1" parent="4ajDwLhojrHfBsYweVD0-71">
          <mxGeometry y="26" width="80" height="26" as="geometry" />
        </mxCell>
        <mxCell id="4ajDwLhojrHfBsYweVD0-73" value="Cybersecurity Validation" style="swimlane;fontStyle=0;childLayout=stackLayout;horizontal=1;startSize=26;fillColor=none;horizontalStack=0;resizeParent=1;resizeParentMax=0;resizeLast=0;collapsible=1;marginBottom=0;" vertex="1" parent="4ajDwLhojrHfBsYweVD0-1">
          <mxGeometry x="1049" y="69" width="149" height="52" as="geometry">
            <mxRectangle x="742" y="320" width="130" height="26" as="alternateBounds" />
          </mxGeometry>
        </mxCell>
        <mxCell id="4ajDwLhojrHfBsYweVD0-74" value="&#39;434-11" style="text;strokeColor=none;fillColor=none;align=left;verticalAlign=top;spacingLeft=4;spacingRight=4;overflow=hidden;rotatable=0;points=[[0,0.5],[1,0.5]];portConstraint=eastwest;" vertex="1" parent="4ajDwLhojrHfBsYweVD0-73">
          <mxGeometry y="26" width="149" height="26" as="geometry" />
        </mxCell>
        <mxCell id="4ajDwLhojrHfBsYweVD0-75" value="Verification" style="swimlane;fontStyle=0;childLayout=stackLayout;horizontal=1;startSize=26;fillColor=#CCFFE6;horizontalStack=0;resizeParent=1;resizeParentMax=0;resizeLast=0;collapsible=1;marginBottom=0;" vertex="1" collapsed="1" parent="4ajDwLhojrHfBsYweVD0-1">
          <mxGeometry x="1078" y="360" width="90" height="26" as="geometry">
            <mxRectangle x="1219" y="360" width="130" height="30" as="alternateBounds" />
          </mxGeometry>
        </mxCell>
        <mxCell id="4ajDwLhojrHfBsYweVD0-76" value="Verification Phase" style="swimlane;fontStyle=0;childLayout=stackLayout;horizontal=1;startSize=26;fillColor=#FFFFFF;horizontalStack=0;resizeParent=1;resizeParentMax=0;resizeLast=0;collapsible=1;marginBottom=0;" vertex="1" parent="4ajDwLhojrHfBsYweVD0-1">
          <mxGeometry x="1056.5000000000002" y="709.9999999999998" width="133.00000000000026" height="52" as="geometry" />
        </mxCell>
        <mxCell id="4ajDwLhojrHfBsYweVD0-77" value="MSSDL P11-13" style="text;strokeColor=none;fillColor=none;align=left;verticalAlign=top;spacingLeft=4;spacingRight=4;overflow=hidden;rotatable=0;points=[[0,0.5],[1,0.5]];portConstraint=eastwest;" vertex="1" parent="4ajDwLhojrHfBsYweVD0-76">
          <mxGeometry y="26" width="133.00000000000026" height="26" as="geometry" />
        </mxCell>
        <mxCell id="4ajDwLhojrHfBsYweVD0-78" value="Operations and Maintenance" style="swimlane;fontStyle=0;childLayout=stackLayout;horizontal=1;startSize=26;fillColor=none;horizontalStack=0;resizeParent=1;resizeParentMax=0;resizeLast=0;collapsible=1;marginBottom=0;" vertex="1" parent="4ajDwLhojrHfBsYweVD0-1">
          <mxGeometry x="1432.75" y="69" width="181.5" height="52" as="geometry">
            <mxRectangle x="742" y="320" width="130" height="26" as="alternateBounds" />
          </mxGeometry>
        </mxCell>
        <mxCell id="4ajDwLhojrHfBsYweVD0-79" value="&#39;434-13" style="text;strokeColor=none;fillColor=none;align=left;verticalAlign=top;spacingLeft=4;spacingRight=4;overflow=hidden;rotatable=0;points=[[0,0.5],[1,0.5]];portConstraint=eastwest;" vertex="1" parent="4ajDwLhojrHfBsYweVD0-78">
          <mxGeometry y="26" width="181.5" height="26" as="geometry" />
        </mxCell>
        <mxCell id="4ajDwLhojrHfBsYweVD0-80" value="EoS and Decommissioning" style="swimlane;fontStyle=0;childLayout=stackLayout;horizontal=1;startSize=26;fillColor=none;horizontalStack=0;resizeParent=1;resizeParentMax=0;resizeLast=0;collapsible=1;marginBottom=0;" vertex="1" parent="4ajDwLhojrHfBsYweVD0-1">
          <mxGeometry x="1640" y="69" width="171.5" height="52" as="geometry">
            <mxRectangle x="742" y="320" width="130" height="26" as="alternateBounds" />
          </mxGeometry>
        </mxCell>
        <mxCell id="4ajDwLhojrHfBsYweVD0-81" value="&#39;434-14" style="text;strokeColor=none;fillColor=none;align=left;verticalAlign=top;spacingLeft=4;spacingRight=4;overflow=hidden;rotatable=0;points=[[0,0.5],[1,0.5]];portConstraint=eastwest;" vertex="1" parent="4ajDwLhojrHfBsYweVD0-80">
          <mxGeometry y="26" width="171.5" height="26" as="geometry" />
        </mxCell>
        <mxCell id="4ajDwLhojrHfBsYweVD0-82" value="Production" style="swimlane;fontStyle=0;childLayout=stackLayout;horizontal=1;startSize=26;fillColor=none;horizontalStack=0;resizeParent=1;resizeParentMax=0;resizeLast=0;collapsible=1;marginBottom=0;" vertex="1" parent="4ajDwLhojrHfBsYweVD0-1">
          <mxGeometry x="1261.75" y="69" width="88.5" height="52" as="geometry" />
        </mxCell>
        <mxCell id="4ajDwLhojrHfBsYweVD0-83" value="&#39;434-12" style="text;strokeColor=none;fillColor=none;align=left;verticalAlign=top;spacingLeft=4;spacingRight=4;overflow=hidden;rotatable=0;points=[[0,0.5],[1,0.5]];portConstraint=eastwest;" vertex="1" parent="4ajDwLhojrHfBsYweVD0-82">
          <mxGeometry y="26" width="88.5" height="26" as="geometry" />
        </mxCell>
        <mxCell id="4ajDwLhojrHfBsYweVD0-84" value="Release" style="swimlane;fontStyle=0;childLayout=stackLayout;horizontal=1;startSize=26;fillColor=#CCFFE6;horizontalStack=0;resizeParent=1;resizeParentMax=0;resizeLast=0;collapsible=1;marginBottom=0;" vertex="1" collapsed="1" parent="4ajDwLhojrHfBsYweVD0-1">
          <mxGeometry x="1266" y="360" width="80" height="26" as="geometry">
            <mxRectangle x="1412" y="360" width="110" height="30" as="alternateBounds" />
          </mxGeometry>
        </mxCell>
        <mxCell id="4ajDwLhojrHfBsYweVD0-85" value="Operation" style="swimlane;fontStyle=0;childLayout=stackLayout;horizontal=1;startSize=26;fillColor=#FFFFCC;horizontalStack=0;resizeParent=1;resizeParentMax=0;resizeLast=0;collapsible=1;marginBottom=0;" vertex="1" collapsed="1" parent="4ajDwLhojrHfBsYweVD0-1">
          <mxGeometry x="1478.5" y="360" width="90" height="26" as="geometry">
            <mxRectangle x="1624.5" y="360" width="120" height="30" as="alternateBounds" />
          </mxGeometry>
        </mxCell>
        <mxCell id="4ajDwLhojrHfBsYweVD0-86" value="Decommissioning" style="swimlane;fontStyle=0;childLayout=stackLayout;horizontal=1;startSize=26;fillColor=#FFFFCC;horizontalStack=0;resizeParent=1;resizeParentMax=0;resizeLast=0;collapsible=1;marginBottom=0;" vertex="1" collapsed="1" parent="4ajDwLhojrHfBsYweVD0-1">
          <mxGeometry x="1678.5" y="360" width="130" height="26" as="geometry">
            <mxRectangle x="1839.5" y="360" width="170" height="30" as="alternateBounds" />
          </mxGeometry>
        </mxCell>
        <mxCell id="4ajDwLhojrHfBsYweVD0-87" value="Respond to Vulnerability Reports" style="swimlane;fontStyle=0;childLayout=stackLayout;horizontal=1;startSize=26;fillColor=none;horizontalStack=0;resizeParent=1;resizeParentMax=0;resizeLast=0;collapsible=1;marginBottom=0;" vertex="1" parent="4ajDwLhojrHfBsYweVD0-1">
          <mxGeometry x="1315" y="480" width="193.5" height="52" as="geometry">
            <mxRectangle x="742" y="320" width="130" height="26" as="alternateBounds" />
          </mxGeometry>
        </mxCell>
        <mxCell id="4ajDwLhojrHfBsYweVD0-88" value="SSDF-RV" style="text;strokeColor=none;fillColor=none;align=left;verticalAlign=top;spacingLeft=4;spacingRight=4;overflow=hidden;rotatable=0;points=[[0,0.5],[1,0.5]];portConstraint=eastwest;" vertex="1" parent="4ajDwLhojrHfBsYweVD0-87">
          <mxGeometry y="26" width="193.5" height="26" as="geometry" />
        </mxCell>
        <mxCell id="4ajDwLhojrHfBsYweVD0-89" value="Release Phase" style="swimlane;fontStyle=0;childLayout=stackLayout;horizontal=1;startSize=26;fillColor=none;horizontalStack=0;resizeParent=1;resizeParentMax=0;resizeLast=0;collapsible=1;marginBottom=0;" vertex="1" parent="4ajDwLhojrHfBsYweVD0-1">
          <mxGeometry x="1247.7499999999995" y="709.9999999999998" width="116.5" height="52" as="geometry">
            <mxRectangle x="742" y="320" width="130" height="26" as="alternateBounds" />
          </mxGeometry>
        </mxCell>
        <mxCell id="4ajDwLhojrHfBsYweVD0-90" value="MSSDL P14-16" style="text;strokeColor=none;fillColor=none;align=left;verticalAlign=top;spacingLeft=4;spacingRight=4;overflow=hidden;rotatable=0;points=[[0,0.5],[1,0.5]];portConstraint=eastwest;" vertex="1" parent="4ajDwLhojrHfBsYweVD0-89">
          <mxGeometry y="26" width="116.5" height="26" as="geometry" />
        </mxCell>
        <mxCell id="4ajDwLhojrHfBsYweVD0-91" value="Response Phase" style="swimlane;fontStyle=0;childLayout=stackLayout;horizontal=1;startSize=26;fillColor=none;horizontalStack=0;resizeParent=1;resizeParentMax=0;resizeLast=0;collapsible=1;marginBottom=0;" vertex="1" parent="4ajDwLhojrHfBsYweVD0-1">
          <mxGeometry x="1463.5000000000002" y="709.9999999999998" width="120" height="52" as="geometry" />
        </mxCell>
        <mxCell id="4ajDwLhojrHfBsYweVD0-92" value="none" style="text;strokeColor=none;fillColor=none;align=left;verticalAlign=top;spacingLeft=4;spacingRight=4;overflow=hidden;rotatable=0;points=[[0,0.5],[1,0.5]];portConstraint=eastwest;" vertex="1" parent="4ajDwLhojrHfBsYweVD0-91">
          <mxGeometry y="26" width="120" height="26" as="geometry" />
        </mxCell>
        <mxCell id="4ajDwLhojrHfBsYweVD0-93" style="edgeStyle=none;rounded=0;orthogonalLoop=1;jettySize=auto;html=1;entryX=0.5;entryY=0;entryDx=0;entryDy=0;strokeColor=#0000CC;exitX=0.503;exitY=1;exitDx=0;exitDy=0;exitPerimeter=0;" edge="1" parent="4ajDwLhojrHfBsYweVD0-1" source="4ajDwLhojrHfBsYweVD0-74" target="4ajDwLhojrHfBsYweVD0-51">
          <mxGeometry relative="1" as="geometry">
            <mxPoint x="1153.9470000000001" y="148" as="sourcePoint" />
            <mxPoint x="510.00000000000045" y="370" as="targetPoint" />
          </mxGeometry>
        </mxCell>
        <mxCell id="4ajDwLhojrHfBsYweVD0-194" style="edgeStyle=orthogonalEdgeStyle;rounded=0;orthogonalLoop=1;jettySize=auto;html=1;exitX=0.5;exitY=1;exitDx=0;exitDy=0;" edge="1" parent="4ajDwLhojrHfBsYweVD0-1" source="4ajDwLhojrHfBsYweVD0-3" target="4ajDwLhojrHfBsYweVD0-3">
          <mxGeometry relative="1" as="geometry" />
        </mxCell>
      </root>
    </mxGraphModel>
  </diagram>
  <diagram name="horizontal - layered" id="L2kLvpiez3pTu550Gu7i">
    <mxGraphModel dx="2138" dy="1384" grid="1" gridSize="10" guides="1" tooltips="1" connect="1" arrows="1" fold="1" page="0" pageScale="1" pageWidth="1169" pageHeight="827" math="0" shadow="0">
      <root>
        <mxCell id="ykP5xD5txdw2n5ki17Vd-0" />
        <mxCell id="SL2A6C5ObI6__MBpmwjM-103" value="AVCDL" parent="ykP5xD5txdw2n5ki17Vd-0" />
        <mxCell id="SL2A6C5ObI6__MBpmwjM-109" value="" style="rounded=0;whiteSpace=wrap;html=1;fillColor=#ffe6cc;strokeColor=none;" vertex="1" parent="SL2A6C5ObI6__MBpmwjM-103">
          <mxGeometry x="80" y="330" width="1970" height="90" as="geometry" />
        </mxCell>
        <mxCell id="ykP5xD5txdw2n5ki17Vd-51" value="Implementation" style="swimlane;fontStyle=0;childLayout=stackLayout;horizontal=1;startSize=26;fillColor=#CCFFE6;horizontalStack=0;resizeParent=1;resizeParentMax=0;resizeLast=0;collapsible=1;marginBottom=0;" vertex="1" collapsed="1" parent="SL2A6C5ObI6__MBpmwjM-103">
          <mxGeometry x="876" y="360" width="110" height="26" as="geometry">
            <mxRectangle x="980" y="360" width="160" height="30" as="alternateBounds" />
          </mxGeometry>
        </mxCell>
        <mxCell id="ykP5xD5txdw2n5ki17Vd-58" value="Requirements" style="swimlane;fontStyle=0;childLayout=stackLayout;horizontal=1;startSize=26;fillColor=#CCFFE6;horizontalStack=0;resizeParent=1;resizeParentMax=0;resizeLast=0;collapsible=1;marginBottom=0;" vertex="1" collapsed="1" parent="SL2A6C5ObI6__MBpmwjM-103">
          <mxGeometry x="453.5" y="360" width="110" height="26" as="geometry">
            <mxRectangle x="555" y="360" width="140" height="30" as="alternateBounds" />
          </mxGeometry>
        </mxCell>
        <mxCell id="ykP5xD5txdw2n5ki17Vd-59" value="Design" style="swimlane;fontStyle=0;childLayout=stackLayout;horizontal=1;startSize=26;fillColor=#CCFFE6;horizontalStack=0;resizeParent=1;resizeParentMax=0;resizeLast=0;collapsible=1;marginBottom=0;" vertex="1" collapsed="1" parent="SL2A6C5ObI6__MBpmwjM-103">
          <mxGeometry x="665" y="360" width="70" height="26" as="geometry">
            <mxRectangle x="777" y="360" width="108" height="30" as="alternateBounds" />
          </mxGeometry>
        </mxCell>
        <mxCell id="ykP5xD5txdw2n5ki17Vd-66" value="Foundation" style="swimlane;fontStyle=0;childLayout=stackLayout;horizontal=1;startSize=26;fillColor=#CCE5FF;horizontalStack=0;resizeParent=1;resizeParentMax=0;resizeLast=0;collapsible=1;marginBottom=0;" vertex="1" collapsed="1" parent="SL2A6C5ObI6__MBpmwjM-103">
          <mxGeometry x="120" y="360" width="90" height="26" as="geometry">
            <mxRectangle x="300" y="360" width="140" height="30" as="alternateBounds" />
          </mxGeometry>
        </mxCell>
        <mxCell id="SL2A6C5ObI6__MBpmwjM-108" value="" style="rounded=0;whiteSpace=wrap;html=1;" vertex="1" parent="ykP5xD5txdw2n5ki17Vd-66">
          <mxGeometry x="-38" y="-20" width="120" height="60" as="geometry" />
        </mxCell>
        <mxCell id="ykP5xD5txdw2n5ki17Vd-75" value="Verification" style="swimlane;fontStyle=0;childLayout=stackLayout;horizontal=1;startSize=26;fillColor=#CCFFE6;horizontalStack=0;resizeParent=1;resizeParentMax=0;resizeLast=0;collapsible=1;marginBottom=0;" vertex="1" collapsed="1" parent="SL2A6C5ObI6__MBpmwjM-103">
          <mxGeometry x="1078" y="360" width="90" height="26" as="geometry">
            <mxRectangle x="1219" y="360" width="130" height="30" as="alternateBounds" />
          </mxGeometry>
        </mxCell>
        <mxCell id="ykP5xD5txdw2n5ki17Vd-84" value="Release" style="swimlane;fontStyle=0;childLayout=stackLayout;horizontal=1;startSize=26;fillColor=#CCFFE6;horizontalStack=0;resizeParent=1;resizeParentMax=0;resizeLast=0;collapsible=1;marginBottom=0;" vertex="1" collapsed="1" parent="SL2A6C5ObI6__MBpmwjM-103">
          <mxGeometry x="1266" y="360" width="80" height="26" as="geometry">
            <mxRectangle x="1412" y="360" width="110" height="30" as="alternateBounds" />
          </mxGeometry>
        </mxCell>
        <mxCell id="ykP5xD5txdw2n5ki17Vd-85" value="Operation" style="swimlane;fontStyle=0;childLayout=stackLayout;horizontal=1;startSize=26;fillColor=#FFFFCC;horizontalStack=0;resizeParent=1;resizeParentMax=0;resizeLast=0;collapsible=1;marginBottom=0;" vertex="1" collapsed="1" parent="SL2A6C5ObI6__MBpmwjM-103">
          <mxGeometry x="1478.5" y="360" width="90" height="26" as="geometry">
            <mxRectangle x="1624.5" y="360" width="120" height="30" as="alternateBounds" />
          </mxGeometry>
        </mxCell>
        <mxCell id="ykP5xD5txdw2n5ki17Vd-86" value="Decommissioning" style="swimlane;fontStyle=0;childLayout=stackLayout;horizontal=1;startSize=26;fillColor=#FFFFCC;horizontalStack=0;resizeParent=1;resizeParentMax=0;resizeLast=0;collapsible=1;marginBottom=0;" vertex="1" collapsed="1" parent="SL2A6C5ObI6__MBpmwjM-103">
          <mxGeometry x="1678.5" y="360" width="130" height="26" as="geometry">
            <mxRectangle x="1839.5" y="360" width="170" height="30" as="alternateBounds" />
          </mxGeometry>
        </mxCell>
        <mxCell id="SL2A6C5ObI6__MBpmwjM-105" value="legend" parent="ykP5xD5txdw2n5ki17Vd-0" />
        <mxCell id="ykP5xD5txdw2n5ki17Vd-10" value="Foundational&amp;nbsp; &amp;nbsp; &amp;nbsp; &amp;nbsp; &amp;nbsp;&amp;nbsp;" style="text;html=1;resizable=0;autosize=1;align=left;verticalAlign=middle;points=[];fillColor=#CCE5FF;strokeColor=#000000;rounded=0;" vertex="1" parent="SL2A6C5ObI6__MBpmwjM-105">
          <mxGeometry x="1930" y="702" width="120" height="20" as="geometry" />
        </mxCell>
        <mxCell id="ykP5xD5txdw2n5ki17Vd-11" value="Developmental&amp;nbsp; &amp;nbsp; &amp;nbsp; &amp;nbsp;" style="text;html=1;resizable=0;autosize=1;align=left;verticalAlign=middle;points=[];fillColor=#CCFFE6;strokeColor=#000000;rounded=0;" vertex="1" parent="SL2A6C5ObI6__MBpmwjM-105">
          <mxGeometry x="1930" y="722" width="120" height="20" as="geometry" />
        </mxCell>
        <mxCell id="ykP5xD5txdw2n5ki17Vd-12" value="Post-developmental" style="text;html=1;resizable=0;autosize=1;align=left;verticalAlign=middle;points=[];fillColor=#FFFFCC;strokeColor=#000000;rounded=0;" vertex="1" parent="SL2A6C5ObI6__MBpmwjM-105">
          <mxGeometry x="1930" y="742" width="120" height="20" as="geometry" />
        </mxCell>
        <mxCell id="ykP5xD5txdw2n5ki17Vd-13" value="General&amp;nbsp; &amp;nbsp; &amp;nbsp; &amp;nbsp; &amp;nbsp; &amp;nbsp; &amp;nbsp; &amp;nbsp; &amp;nbsp;&amp;nbsp;" style="text;html=1;resizable=0;autosize=1;align=left;verticalAlign=middle;points=[];rounded=0;strokeColor=#000000;" vertex="1" parent="SL2A6C5ObI6__MBpmwjM-105">
          <mxGeometry x="1930" y="682" width="120" height="20" as="geometry" />
        </mxCell>
        <mxCell id="ykP5xD5txdw2n5ki17Vd-1" value="arrows" parent="ykP5xD5txdw2n5ki17Vd-0" />
        <mxCell id="ykP5xD5txdw2n5ki17Vd-4" style="edgeStyle=none;rounded=0;orthogonalLoop=1;jettySize=auto;html=1;entryX=0.5;entryY=1;entryDx=0;entryDy=0;exitX=0.5;exitY=0;exitDx=0;exitDy=0;" edge="1" parent="ykP5xD5txdw2n5ki17Vd-1" source="ykP5xD5txdw2n5ki17Vd-89" target="ykP5xD5txdw2n5ki17Vd-66">
          <mxGeometry relative="1" as="geometry">
            <mxPoint x="249.72000000000003" y="411.66200000000003" as="targetPoint" />
          </mxGeometry>
        </mxCell>
        <mxCell id="ykP5xD5txdw2n5ki17Vd-5" style="edgeStyle=none;rounded=0;orthogonalLoop=1;jettySize=auto;html=1;entryX=0.5;entryY=0;entryDx=0;entryDy=0;strokeColor=#0000CC;exitX=0.5;exitY=1;exitDx=0;exitDy=0;exitPerimeter=0;" edge="1" parent="ykP5xD5txdw2n5ki17Vd-1" source="ykP5xD5txdw2n5ki17Vd-46" target="ykP5xD5txdw2n5ki17Vd-84">
          <mxGeometry relative="1" as="geometry">
            <mxPoint x="245" y="146" as="sourcePoint" />
            <mxPoint x="1900.9900000000002" y="496.9839999999999" as="targetPoint" />
          </mxGeometry>
        </mxCell>
        <mxCell id="ykP5xD5txdw2n5ki17Vd-7" style="edgeStyle=none;rounded=0;orthogonalLoop=1;jettySize=auto;html=1;entryX=0.5;entryY=1;entryDx=0;entryDy=0;strokeColor=#CC6600;exitX=0.5;exitY=0;exitDx=0;exitDy=0;" edge="1" parent="ykP5xD5txdw2n5ki17Vd-1" source="ykP5xD5txdw2n5ki17Vd-69" target="ykP5xD5txdw2n5ki17Vd-66">
          <mxGeometry relative="1" as="geometry">
            <mxPoint x="250.1400000000001" y="412.28600000000006" as="targetPoint" />
          </mxGeometry>
        </mxCell>
        <mxCell id="ykP5xD5txdw2n5ki17Vd-8" style="edgeStyle=none;rounded=0;orthogonalLoop=1;jettySize=auto;html=1;entryX=0.5;entryY=1;entryDx=0;entryDy=0;strokeColor=#CC6600;exitX=0.5;exitY=0;exitDx=0;exitDy=0;" edge="1" parent="ykP5xD5txdw2n5ki17Vd-1" source="ykP5xD5txdw2n5ki17Vd-69" target="ykP5xD5txdw2n5ki17Vd-58">
          <mxGeometry relative="1" as="geometry">
            <mxPoint x="508.0799999999999" y="411.71399999999994" as="targetPoint" />
          </mxGeometry>
        </mxCell>
        <mxCell id="ykP5xD5txdw2n5ki17Vd-9" style="edgeStyle=none;rounded=0;orthogonalLoop=1;jettySize=auto;html=1;entryX=0.5;entryY=1;entryDx=0;entryDy=0;strokeColor=#CC6600;exitX=0.5;exitY=0;exitDx=0;exitDy=0;" edge="1" parent="ykP5xD5txdw2n5ki17Vd-1" source="ykP5xD5txdw2n5ki17Vd-60" target="ykP5xD5txdw2n5ki17Vd-66">
          <mxGeometry relative="1" as="geometry">
            <mxPoint x="249.57999999999993" y="411.71399999999994" as="targetPoint" />
          </mxGeometry>
        </mxCell>
        <mxCell id="ykP5xD5txdw2n5ki17Vd-14" style="edgeStyle=none;rounded=0;orthogonalLoop=1;jettySize=auto;html=1;strokeColor=#CC6600;entryX=0.5;entryY=1;entryDx=0;entryDy=0;exitX=0.5;exitY=0;exitDx=0;exitDy=0;" edge="1" parent="ykP5xD5txdw2n5ki17Vd-1" source="ykP5xD5txdw2n5ki17Vd-52" target="ykP5xD5txdw2n5ki17Vd-59">
          <mxGeometry relative="1" as="geometry">
            <mxPoint x="700.0000000000007" y="411.71399999999994" as="targetPoint" />
          </mxGeometry>
        </mxCell>
        <mxCell id="ykP5xD5txdw2n5ki17Vd-15" style="edgeStyle=none;rounded=0;orthogonalLoop=1;jettySize=auto;html=1;entryX=0.5;entryY=1;entryDx=0;entryDy=0;strokeColor=#CC6600;exitX=0.5;exitY=0;exitDx=0;exitDy=0;" edge="1" parent="ykP5xD5txdw2n5ki17Vd-1" source="ykP5xD5txdw2n5ki17Vd-52" target="ykP5xD5txdw2n5ki17Vd-51">
          <mxGeometry relative="1" as="geometry">
            <mxPoint x="999.1599999999999" y="412.28600000000006" as="targetPoint" />
          </mxGeometry>
        </mxCell>
        <mxCell id="ykP5xD5txdw2n5ki17Vd-16" style="edgeStyle=none;rounded=0;orthogonalLoop=1;jettySize=auto;html=1;entryX=0.5;entryY=1;entryDx=0;entryDy=0;strokeColor=#CC6600;exitX=0.5;exitY=0;exitDx=0;exitDy=0;" edge="1" parent="ykP5xD5txdw2n5ki17Vd-1" source="ykP5xD5txdw2n5ki17Vd-52" target="ykP5xD5txdw2n5ki17Vd-75">
          <mxGeometry relative="1" as="geometry">
            <mxPoint x="1222.4799999999996" y="411.71399999999994" as="targetPoint" />
          </mxGeometry>
        </mxCell>
        <mxCell id="ykP5xD5txdw2n5ki17Vd-17" style="edgeStyle=none;rounded=0;orthogonalLoop=1;jettySize=auto;html=1;entryX=0.5;entryY=1;entryDx=0;entryDy=0;" edge="1" parent="ykP5xD5txdw2n5ki17Vd-1" source="ykP5xD5txdw2n5ki17Vd-67" target="ykP5xD5txdw2n5ki17Vd-66">
          <mxGeometry relative="1" as="geometry">
            <mxPoint x="250.55999999999995" y="411.9480000000001" as="targetPoint" />
          </mxGeometry>
        </mxCell>
        <mxCell id="ykP5xD5txdw2n5ki17Vd-18" style="edgeStyle=none;rounded=0;orthogonalLoop=1;jettySize=auto;html=1;entryX=0.5;entryY=1;entryDx=0;entryDy=0;" edge="1" parent="ykP5xD5txdw2n5ki17Vd-1" source="ykP5xD5txdw2n5ki17Vd-62" target="ykP5xD5txdw2n5ki17Vd-59">
          <mxGeometry relative="1" as="geometry">
            <mxPoint x="700.0000000000007" y="411.71399999999994" as="targetPoint" />
          </mxGeometry>
        </mxCell>
        <mxCell id="ykP5xD5txdw2n5ki17Vd-19" style="edgeStyle=none;rounded=0;orthogonalLoop=1;jettySize=auto;html=1;entryX=0.5;entryY=1;entryDx=0;entryDy=0;" edge="1" parent="ykP5xD5txdw2n5ki17Vd-1" source="ykP5xD5txdw2n5ki17Vd-54" target="ykP5xD5txdw2n5ki17Vd-51">
          <mxGeometry relative="1" as="geometry" />
        </mxCell>
        <mxCell id="ykP5xD5txdw2n5ki17Vd-20" style="edgeStyle=none;rounded=0;orthogonalLoop=1;jettySize=auto;html=1;entryX=0.5;entryY=1;entryDx=0;entryDy=0;" edge="1" parent="ykP5xD5txdw2n5ki17Vd-1" source="ykP5xD5txdw2n5ki17Vd-76" target="ykP5xD5txdw2n5ki17Vd-75">
          <mxGeometry relative="1" as="geometry">
            <mxPoint x="1122.4799999999996" y="410.8299999999999" as="targetPoint" />
          </mxGeometry>
        </mxCell>
        <mxCell id="ykP5xD5txdw2n5ki17Vd-21" style="edgeStyle=none;rounded=0;orthogonalLoop=1;jettySize=auto;html=1;entryX=0.5;entryY=1;entryDx=0;entryDy=0;" edge="1" parent="ykP5xD5txdw2n5ki17Vd-1" source="ykP5xD5txdw2n5ki17Vd-89" target="ykP5xD5txdw2n5ki17Vd-84">
          <mxGeometry relative="1" as="geometry" />
        </mxCell>
        <mxCell id="ykP5xD5txdw2n5ki17Vd-22" style="edgeStyle=none;rounded=0;orthogonalLoop=1;jettySize=auto;html=1;entryX=0.5;entryY=1;entryDx=0;entryDy=0;" edge="1" parent="ykP5xD5txdw2n5ki17Vd-1" source="ykP5xD5txdw2n5ki17Vd-91" target="ykP5xD5txdw2n5ki17Vd-85">
          <mxGeometry relative="1" as="geometry">
            <mxPoint x="1524.3400000000008" y="412" as="targetPoint" />
          </mxGeometry>
        </mxCell>
        <mxCell id="ykP5xD5txdw2n5ki17Vd-23" style="edgeStyle=none;rounded=0;orthogonalLoop=1;jettySize=auto;html=1;entryX=0.5;entryY=1;entryDx=0;entryDy=0;" edge="1" parent="ykP5xD5txdw2n5ki17Vd-1" source="ykP5xD5txdw2n5ki17Vd-64" target="ykP5xD5txdw2n5ki17Vd-58">
          <mxGeometry relative="1" as="geometry">
            <mxPoint x="508.5" y="412" as="targetPoint" />
          </mxGeometry>
        </mxCell>
        <mxCell id="ykP5xD5txdw2n5ki17Vd-24" style="edgeStyle=none;rounded=0;orthogonalLoop=1;jettySize=auto;html=1;entryX=0.5;entryY=1;entryDx=0;entryDy=0;exitX=0.5;exitY=0;exitDx=0;exitDy=0;" edge="1" parent="ykP5xD5txdw2n5ki17Vd-1" source="ykP5xD5txdw2n5ki17Vd-64" target="ykP5xD5txdw2n5ki17Vd-59">
          <mxGeometry relative="1" as="geometry">
            <mxPoint x="710.4600000000007" y="411.71399999999994" as="targetPoint" />
          </mxGeometry>
        </mxCell>
        <mxCell id="ykP5xD5txdw2n5ki17Vd-25" style="edgeStyle=none;rounded=0;orthogonalLoop=1;jettySize=auto;html=1;entryX=0.5;entryY=1;entryDx=0;entryDy=0;strokeColor=#CC6600;exitX=0.5;exitY=0;exitDx=0;exitDy=0;" edge="1" parent="ykP5xD5txdw2n5ki17Vd-1" source="ykP5xD5txdw2n5ki17Vd-87" target="ykP5xD5txdw2n5ki17Vd-85">
          <mxGeometry relative="1" as="geometry">
            <mxPoint x="1561.4700000000003" y="411.71399999999994" as="targetPoint" />
          </mxGeometry>
        </mxCell>
        <mxCell id="ykP5xD5txdw2n5ki17Vd-26" style="edgeStyle=none;rounded=0;orthogonalLoop=1;jettySize=auto;html=1;entryX=0.5;entryY=0;entryDx=0;entryDy=0;strokeColor=#0000CC;exitX=0.5;exitY=1;exitDx=0;exitDy=0;" edge="1" parent="ykP5xD5txdw2n5ki17Vd-1" source="ykP5xD5txdw2n5ki17Vd-78" target="ykP5xD5txdw2n5ki17Vd-66">
          <mxGeometry relative="1" as="geometry" />
        </mxCell>
        <mxCell id="ykP5xD5txdw2n5ki17Vd-27" style="edgeStyle=none;rounded=0;orthogonalLoop=1;jettySize=auto;html=1;strokeColor=#0000CC;entryX=0.5;entryY=0;entryDx=0;entryDy=0;exitX=0.503;exitY=1;exitDx=0;exitDy=0;exitPerimeter=0;" edge="1" parent="ykP5xD5txdw2n5ki17Vd-1" source="ykP5xD5txdw2n5ki17Vd-81" target="ykP5xD5txdw2n5ki17Vd-66">
          <mxGeometry relative="1" as="geometry">
            <mxPoint x="940" y="330" as="targetPoint" />
            <mxPoint x="1964.5500000000002" y="148" as="sourcePoint" />
          </mxGeometry>
        </mxCell>
        <mxCell id="ykP5xD5txdw2n5ki17Vd-28" style="edgeStyle=none;rounded=0;orthogonalLoop=1;jettySize=auto;html=1;entryX=0.5;entryY=0;entryDx=0;entryDy=0;strokeColor=#0000CC;exitX=0.5;exitY=1;exitDx=0;exitDy=0;" edge="1" parent="ykP5xD5txdw2n5ki17Vd-1" source="ykP5xD5txdw2n5ki17Vd-43" target="ykP5xD5txdw2n5ki17Vd-66">
          <mxGeometry relative="1" as="geometry">
            <mxPoint x="290" y="400" as="targetPoint" />
            <mxPoint x="492" y="130" as="sourcePoint" />
          </mxGeometry>
        </mxCell>
        <mxCell id="ykP5xD5txdw2n5ki17Vd-29" style="edgeStyle=none;rounded=0;orthogonalLoop=1;jettySize=auto;html=1;entryX=0.574;entryY=-0.058;entryDx=0;entryDy=0;entryPerimeter=0;strokeColor=#0000CC;exitX=0.501;exitY=1;exitDx=0;exitDy=0;exitPerimeter=0;" edge="1" parent="ykP5xD5txdw2n5ki17Vd-1" source="ykP5xD5txdw2n5ki17Vd-44" target="ykP5xD5txdw2n5ki17Vd-85">
          <mxGeometry relative="1" as="geometry">
            <mxPoint x="500" y="130" as="sourcePoint" />
          </mxGeometry>
        </mxCell>
        <mxCell id="ykP5xD5txdw2n5ki17Vd-30" style="edgeStyle=none;rounded=0;orthogonalLoop=1;jettySize=auto;html=1;entryX=0.5;entryY=0;entryDx=0;entryDy=0;strokeColor=#0000CC;exitX=0.502;exitY=1;exitDx=0;exitDy=0;exitPerimeter=0;" edge="1" parent="ykP5xD5txdw2n5ki17Vd-1" source="ykP5xD5txdw2n5ki17Vd-72" target="ykP5xD5txdw2n5ki17Vd-58">
          <mxGeometry relative="1" as="geometry">
            <mxPoint x="710.72" y="146.97399999999993" as="sourcePoint" />
          </mxGeometry>
        </mxCell>
        <mxCell id="ykP5xD5txdw2n5ki17Vd-31" style="edgeStyle=none;rounded=0;orthogonalLoop=1;jettySize=auto;html=1;entryX=0.5;entryY=0;entryDx=0;entryDy=0;strokeColor=#0000CC;" edge="1" parent="ykP5xD5txdw2n5ki17Vd-1" source="ykP5xD5txdw2n5ki17Vd-71" target="ykP5xD5txdw2n5ki17Vd-59">
          <mxGeometry relative="1" as="geometry" />
        </mxCell>
        <mxCell id="ykP5xD5txdw2n5ki17Vd-32" style="edgeStyle=none;rounded=0;orthogonalLoop=1;jettySize=auto;html=1;entryX=0.5;entryY=0;entryDx=0;entryDy=0;strokeColor=#0000CC;exitX=0.503;exitY=1;exitDx=0;exitDy=0;exitPerimeter=0;" edge="1" parent="ykP5xD5txdw2n5ki17Vd-1" source="ykP5xD5txdw2n5ki17Vd-57" target="ykP5xD5txdw2n5ki17Vd-59">
          <mxGeometry relative="1" as="geometry">
            <mxPoint x="2204" y="147.98800000000006" as="sourcePoint" />
          </mxGeometry>
        </mxCell>
        <mxCell id="ykP5xD5txdw2n5ki17Vd-33" style="edgeStyle=none;rounded=0;orthogonalLoop=1;jettySize=auto;html=1;entryX=0.5;entryY=0;entryDx=0;entryDy=0;strokeColor=#0000CC;" edge="1" parent="ykP5xD5txdw2n5ki17Vd-1" source="ykP5xD5txdw2n5ki17Vd-49" target="ykP5xD5txdw2n5ki17Vd-51">
          <mxGeometry relative="1" as="geometry" />
        </mxCell>
        <mxCell id="ykP5xD5txdw2n5ki17Vd-34" style="edgeStyle=none;rounded=0;orthogonalLoop=1;jettySize=auto;html=1;strokeColor=#0000CC;exitX=0.503;exitY=1;exitDx=0;exitDy=0;exitPerimeter=0;entryX=0.5;entryY=0;entryDx=0;entryDy=0;" edge="1" parent="ykP5xD5txdw2n5ki17Vd-1" source="ykP5xD5txdw2n5ki17Vd-50" target="ykP5xD5txdw2n5ki17Vd-75">
          <mxGeometry relative="1" as="geometry">
            <mxPoint x="928.605" y="147.97399999999993" as="sourcePoint" />
          </mxGeometry>
        </mxCell>
        <mxCell id="ykP5xD5txdw2n5ki17Vd-35" style="edgeStyle=none;rounded=0;orthogonalLoop=1;jettySize=auto;html=1;entryX=0.457;entryY=0;entryDx=0;entryDy=0;entryPerimeter=0;strokeColor=#0000CC;exitX=0.495;exitY=1;exitDx=0;exitDy=0;exitPerimeter=0;" edge="1" parent="ykP5xD5txdw2n5ki17Vd-1" source="ykP5xD5txdw2n5ki17Vd-50" target="ykP5xD5txdw2n5ki17Vd-66">
          <mxGeometry relative="1" as="geometry">
            <mxPoint x="1009.605" y="147.97399999999993" as="sourcePoint" />
          </mxGeometry>
        </mxCell>
        <mxCell id="ykP5xD5txdw2n5ki17Vd-36" style="edgeStyle=none;rounded=0;orthogonalLoop=1;jettySize=auto;html=1;strokeColor=#0000CC;" edge="1" parent="ykP5xD5txdw2n5ki17Vd-1" source="ykP5xD5txdw2n5ki17Vd-73" target="ykP5xD5txdw2n5ki17Vd-75">
          <mxGeometry relative="1" as="geometry" />
        </mxCell>
        <mxCell id="ykP5xD5txdw2n5ki17Vd-37" style="edgeStyle=none;rounded=0;orthogonalLoop=1;jettySize=auto;html=1;entryX=0.5;entryY=0;entryDx=0;entryDy=0;strokeColor=#0000CC;exitX=0.5;exitY=1;exitDx=0;exitDy=0;" edge="1" parent="ykP5xD5txdw2n5ki17Vd-1" source="ykP5xD5txdw2n5ki17Vd-73" target="ykP5xD5txdw2n5ki17Vd-59">
          <mxGeometry relative="1" as="geometry" />
        </mxCell>
        <mxCell id="ykP5xD5txdw2n5ki17Vd-38" style="edgeStyle=none;rounded=0;orthogonalLoop=1;jettySize=auto;html=1;entryX=0.5;entryY=0;entryDx=0;entryDy=0;strokeColor=#0000CC;" edge="1" parent="ykP5xD5txdw2n5ki17Vd-1" source="ykP5xD5txdw2n5ki17Vd-82" target="ykP5xD5txdw2n5ki17Vd-84">
          <mxGeometry relative="1" as="geometry" />
        </mxCell>
        <mxCell id="ykP5xD5txdw2n5ki17Vd-39" style="edgeStyle=none;rounded=0;orthogonalLoop=1;jettySize=auto;html=1;entryX=0.5;entryY=0;entryDx=0;entryDy=0;strokeColor=#0000CC;" edge="1" parent="ykP5xD5txdw2n5ki17Vd-1" source="ykP5xD5txdw2n5ki17Vd-78" target="ykP5xD5txdw2n5ki17Vd-85">
          <mxGeometry relative="1" as="geometry">
            <mxPoint x="1690.4999999999998" y="168" as="sourcePoint" />
            <mxPoint x="1690.4999999999998" y="509.9999999999998" as="targetPoint" />
          </mxGeometry>
        </mxCell>
        <mxCell id="ykP5xD5txdw2n5ki17Vd-41" style="edgeStyle=none;rounded=0;orthogonalLoop=1;jettySize=auto;html=1;strokeColor=#0000CC;entryX=0.5;entryY=0;entryDx=0;entryDy=0;exitX=0.5;exitY=1;exitDx=0;exitDy=0;exitPerimeter=0;" edge="1" parent="ykP5xD5txdw2n5ki17Vd-1" source="ykP5xD5txdw2n5ki17Vd-46" target="ykP5xD5txdw2n5ki17Vd-59">
          <mxGeometry relative="1" as="geometry">
            <mxPoint x="690" y="440" as="targetPoint" />
            <mxPoint x="240" y="122" as="sourcePoint" />
          </mxGeometry>
        </mxCell>
        <mxCell id="ykP5xD5txdw2n5ki17Vd-42" style="edgeStyle=none;rounded=0;orthogonalLoop=1;jettySize=auto;html=1;strokeColor=#0000CC;exitX=0.486;exitY=1.083;exitDx=0;exitDy=0;exitPerimeter=0;entryX=0.5;entryY=0;entryDx=0;entryDy=0;" edge="1" parent="ykP5xD5txdw2n5ki17Vd-1" source="ykP5xD5txdw2n5ki17Vd-48" target="ykP5xD5txdw2n5ki17Vd-66">
          <mxGeometry relative="1" as="geometry">
            <mxPoint x="536.0000000000005" y="384.0000000000001" as="targetPoint" />
            <mxPoint x="3.740000000000009" y="146.59799999999996" as="sourcePoint" />
          </mxGeometry>
        </mxCell>
        <mxCell id="ykP5xD5txdw2n5ki17Vd-93" style="edgeStyle=none;rounded=0;orthogonalLoop=1;jettySize=auto;html=1;entryX=0.5;entryY=0;entryDx=0;entryDy=0;strokeColor=#0000CC;exitX=0.503;exitY=1;exitDx=0;exitDy=0;exitPerimeter=0;" edge="1" parent="ykP5xD5txdw2n5ki17Vd-1" source="ykP5xD5txdw2n5ki17Vd-74" target="ykP5xD5txdw2n5ki17Vd-51">
          <mxGeometry relative="1" as="geometry">
            <mxPoint x="1153.9470000000001" y="148" as="sourcePoint" />
            <mxPoint x="510.00000000000045" y="370" as="targetPoint" />
          </mxGeometry>
        </mxCell>
        <mxCell id="ykP5xD5txdw2n5ki17Vd-94" style="edgeStyle=orthogonalEdgeStyle;rounded=0;orthogonalLoop=1;jettySize=auto;html=1;exitX=0.5;exitY=1;exitDx=0;exitDy=0;" edge="1" parent="ykP5xD5txdw2n5ki17Vd-1">
          <mxGeometry relative="1" as="geometry">
            <mxPoint x="595" y="410" as="sourcePoint" />
            <mxPoint x="595" y="410" as="targetPoint" />
          </mxGeometry>
        </mxCell>
        <mxCell id="SL2A6C5ObI6__MBpmwjM-107" value="MSSDL" parent="ykP5xD5txdw2n5ki17Vd-0" />
        <mxCell id="ykP5xD5txdw2n5ki17Vd-54" value="Implementation Phase" style="swimlane;fontStyle=0;childLayout=stackLayout;horizontal=1;startSize=26;fillColor=none;horizontalStack=0;resizeParent=1;resizeParentMax=0;resizeLast=0;collapsible=1;marginBottom=0;" vertex="1" parent="SL2A6C5ObI6__MBpmwjM-107">
          <mxGeometry x="851.5" y="709.9999999999998" width="157.5" height="52" as="geometry" />
        </mxCell>
        <mxCell id="ykP5xD5txdw2n5ki17Vd-55" value="MSSDL P8-10" style="text;strokeColor=none;fillColor=none;align=left;verticalAlign=top;spacingLeft=4;spacingRight=4;overflow=hidden;rotatable=0;points=[[0,0.5],[1,0.5]];portConstraint=eastwest;" vertex="1" parent="ykP5xD5txdw2n5ki17Vd-54">
          <mxGeometry y="26" width="157.5" height="26" as="geometry" />
        </mxCell>
        <mxCell id="ykP5xD5txdw2n5ki17Vd-62" value="Design Phase" style="swimlane;fontStyle=0;childLayout=stackLayout;horizontal=1;startSize=26;fillColor=none;horizontalStack=0;resizeParent=1;resizeParentMax=0;resizeLast=0;collapsible=1;marginBottom=0;" vertex="1" parent="SL2A6C5ObI6__MBpmwjM-107">
          <mxGeometry x="646.7500000000001" y="709.9999999999999" width="106.50000000000026" height="52" as="geometry">
            <mxRectangle x="742" y="320" width="130" height="26" as="alternateBounds" />
          </mxGeometry>
        </mxCell>
        <mxCell id="ykP5xD5txdw2n5ki17Vd-63" value="MSSDL P5-7" style="text;strokeColor=none;fillColor=none;align=left;verticalAlign=top;spacingLeft=4;spacingRight=4;overflow=hidden;rotatable=0;points=[[0,0.5],[1,0.5]];portConstraint=eastwest;" vertex="1" parent="ykP5xD5txdw2n5ki17Vd-62">
          <mxGeometry y="26" width="106.50000000000026" height="26" as="geometry" />
        </mxCell>
        <mxCell id="ykP5xD5txdw2n5ki17Vd-64" value="Requirements Phase" style="swimlane;fontStyle=0;childLayout=stackLayout;horizontal=1;startSize=26;fillColor=none;horizontalStack=0;resizeParent=1;resizeParentMax=0;resizeLast=0;collapsible=1;marginBottom=0;" vertex="1" parent="SL2A6C5ObI6__MBpmwjM-107">
          <mxGeometry x="438.5" y="709.9999999999999" width="140" height="52" as="geometry">
            <mxRectangle x="742" y="320" width="130" height="26" as="alternateBounds" />
          </mxGeometry>
        </mxCell>
        <mxCell id="ykP5xD5txdw2n5ki17Vd-65" value="MSSDL P2-4" style="text;strokeColor=none;fillColor=none;align=left;verticalAlign=top;spacingLeft=4;spacingRight=4;overflow=hidden;rotatable=0;points=[[0,0.5],[1,0.5]];portConstraint=eastwest;" vertex="1" parent="ykP5xD5txdw2n5ki17Vd-64">
          <mxGeometry y="26" width="140" height="26" as="geometry" />
        </mxCell>
        <mxCell id="ykP5xD5txdw2n5ki17Vd-67" value="Training Phase" style="swimlane;fontStyle=0;childLayout=stackLayout;horizontal=1;startSize=26;fillColor=none;horizontalStack=0;resizeParent=1;resizeParentMax=0;resizeLast=0;collapsible=1;marginBottom=0;" vertex="1" parent="SL2A6C5ObI6__MBpmwjM-107">
          <mxGeometry x="110" y="709.9999999999999" width="110" height="52" as="geometry" />
        </mxCell>
        <mxCell id="ykP5xD5txdw2n5ki17Vd-68" value="MSSDL P1" style="text;strokeColor=none;fillColor=none;align=left;verticalAlign=top;spacingLeft=4;spacingRight=4;overflow=hidden;rotatable=0;points=[[0,0.5],[1,0.5]];portConstraint=eastwest;" vertex="1" parent="ykP5xD5txdw2n5ki17Vd-67">
          <mxGeometry y="26" width="110" height="26" as="geometry" />
        </mxCell>
        <mxCell id="ykP5xD5txdw2n5ki17Vd-76" value="Verification Phase" style="swimlane;fontStyle=0;childLayout=stackLayout;horizontal=1;startSize=26;fillColor=#FFFFFF;horizontalStack=0;resizeParent=1;resizeParentMax=0;resizeLast=0;collapsible=1;marginBottom=0;" vertex="1" parent="SL2A6C5ObI6__MBpmwjM-107">
          <mxGeometry x="1056.5000000000002" y="709.9999999999998" width="133.00000000000026" height="52" as="geometry" />
        </mxCell>
        <mxCell id="ykP5xD5txdw2n5ki17Vd-77" value="MSSDL P11-13" style="text;strokeColor=none;fillColor=none;align=left;verticalAlign=top;spacingLeft=4;spacingRight=4;overflow=hidden;rotatable=0;points=[[0,0.5],[1,0.5]];portConstraint=eastwest;" vertex="1" parent="ykP5xD5txdw2n5ki17Vd-76">
          <mxGeometry y="26" width="133.00000000000026" height="26" as="geometry" />
        </mxCell>
        <mxCell id="ykP5xD5txdw2n5ki17Vd-89" value="Release Phase" style="swimlane;fontStyle=0;childLayout=stackLayout;horizontal=1;startSize=26;fillColor=none;horizontalStack=0;resizeParent=1;resizeParentMax=0;resizeLast=0;collapsible=1;marginBottom=0;" vertex="1" parent="SL2A6C5ObI6__MBpmwjM-107">
          <mxGeometry x="1247.7499999999995" y="709.9999999999998" width="116.5" height="52" as="geometry">
            <mxRectangle x="742" y="320" width="130" height="26" as="alternateBounds" />
          </mxGeometry>
        </mxCell>
        <mxCell id="ykP5xD5txdw2n5ki17Vd-90" value="MSSDL P14-16" style="text;strokeColor=none;fillColor=none;align=left;verticalAlign=top;spacingLeft=4;spacingRight=4;overflow=hidden;rotatable=0;points=[[0,0.5],[1,0.5]];portConstraint=eastwest;" vertex="1" parent="ykP5xD5txdw2n5ki17Vd-89">
          <mxGeometry y="26" width="116.5" height="26" as="geometry" />
        </mxCell>
        <mxCell id="ykP5xD5txdw2n5ki17Vd-91" value="Response Phase" style="swimlane;fontStyle=0;childLayout=stackLayout;horizontal=1;startSize=26;fillColor=none;horizontalStack=0;resizeParent=1;resizeParentMax=0;resizeLast=0;collapsible=1;marginBottom=0;" vertex="1" parent="SL2A6C5ObI6__MBpmwjM-107">
          <mxGeometry x="1463.5000000000002" y="709.9999999999998" width="120" height="52" as="geometry" />
        </mxCell>
        <mxCell id="ykP5xD5txdw2n5ki17Vd-92" value="none" style="text;strokeColor=none;fillColor=none;align=left;verticalAlign=top;spacingLeft=4;spacingRight=4;overflow=hidden;rotatable=0;points=[[0,0.5],[1,0.5]];portConstraint=eastwest;" vertex="1" parent="ykP5xD5txdw2n5ki17Vd-91">
          <mxGeometry y="26" width="120" height="26" as="geometry" />
        </mxCell>
        <mxCell id="SL2A6C5ObI6__MBpmwjM-106" value="SSDF" parent="ykP5xD5txdw2n5ki17Vd-0" />
        <mxCell id="ykP5xD5txdw2n5ki17Vd-52" value="Produce Well-Secured Software" style="swimlane;fontStyle=0;childLayout=stackLayout;horizontal=1;startSize=26;horizontalStack=0;resizeParent=1;resizeParentMax=0;resizeLast=0;collapsible=1;marginBottom=0;" vertex="1" parent="SL2A6C5ObI6__MBpmwjM-106">
          <mxGeometry x="719" y="480" width="190" height="52" as="geometry" />
        </mxCell>
        <mxCell id="ykP5xD5txdw2n5ki17Vd-53" value="SSDF-PW" style="text;align=left;verticalAlign=top;spacingLeft=4;spacingRight=4;overflow=hidden;rotatable=0;points=[[0,0.5],[1,0.5]];portConstraint=eastwest;fillColor=#ffffff;" vertex="1" parent="ykP5xD5txdw2n5ki17Vd-52">
          <mxGeometry y="26" width="190" height="26" as="geometry" />
        </mxCell>
        <mxCell id="ykP5xD5txdw2n5ki17Vd-60" value="Protect Software" style="swimlane;fontStyle=0;childLayout=stackLayout;horizontal=1;startSize=26;fillColor=none;horizontalStack=0;resizeParent=1;resizeParentMax=0;resizeLast=0;collapsible=1;marginBottom=0;" vertex="1" parent="SL2A6C5ObI6__MBpmwjM-106">
          <mxGeometry x="180" y="480" width="117" height="52" as="geometry">
            <mxRectangle x="742" y="320" width="130" height="26" as="alternateBounds" />
          </mxGeometry>
        </mxCell>
        <mxCell id="ykP5xD5txdw2n5ki17Vd-61" value="SSDF-PS" style="text;strokeColor=none;fillColor=none;align=left;verticalAlign=top;spacingLeft=4;spacingRight=4;overflow=hidden;rotatable=0;points=[[0,0.5],[1,0.5]];portConstraint=eastwest;" vertex="1" parent="ykP5xD5txdw2n5ki17Vd-60">
          <mxGeometry y="26" width="117" height="26" as="geometry" />
        </mxCell>
        <mxCell id="ykP5xD5txdw2n5ki17Vd-69" value="Prepare the Organization" style="swimlane;fontStyle=0;childLayout=stackLayout;horizontal=1;startSize=26;fillColor=#FFFFFF;horizontalStack=0;resizeParent=1;resizeParentMax=0;resizeLast=0;collapsible=1;marginBottom=0;" vertex="1" parent="SL2A6C5ObI6__MBpmwjM-106">
          <mxGeometry x="330" y="480" width="150" height="52" as="geometry" />
        </mxCell>
        <mxCell id="ykP5xD5txdw2n5ki17Vd-70" value="SSDF-PO" style="text;strokeColor=none;fillColor=#FFFFFF;align=left;verticalAlign=top;spacingLeft=4;spacingRight=4;overflow=hidden;rotatable=0;points=[[0,0.5],[1,0.5]];portConstraint=eastwest;" vertex="1" parent="ykP5xD5txdw2n5ki17Vd-69">
          <mxGeometry y="26" width="150" height="26" as="geometry" />
        </mxCell>
        <mxCell id="ykP5xD5txdw2n5ki17Vd-87" value="Respond to Vulnerability Reports" style="swimlane;fontStyle=0;childLayout=stackLayout;horizontal=1;startSize=26;fillColor=none;horizontalStack=0;resizeParent=1;resizeParentMax=0;resizeLast=0;collapsible=1;marginBottom=0;" vertex="1" parent="SL2A6C5ObI6__MBpmwjM-106">
          <mxGeometry x="1315" y="480" width="193.5" height="52" as="geometry">
            <mxRectangle x="742" y="320" width="130" height="26" as="alternateBounds" />
          </mxGeometry>
        </mxCell>
        <mxCell id="ykP5xD5txdw2n5ki17Vd-88" value="SSDF-RV" style="text;strokeColor=none;fillColor=none;align=left;verticalAlign=top;spacingLeft=4;spacingRight=4;overflow=hidden;rotatable=0;points=[[0,0.5],[1,0.5]];portConstraint=eastwest;" vertex="1" parent="ykP5xD5txdw2n5ki17Vd-87">
          <mxGeometry y="26" width="193.5" height="26" as="geometry" />
        </mxCell>
        <mxCell id="SL2A6C5ObI6__MBpmwjM-0" value="26262" parent="ykP5xD5txdw2n5ki17Vd-0" />
        <mxCell id="SL2A6C5ObI6__MBpmwjM-1" value="&lt;font style=&quot;font-size: 24px&quot;&gt;&amp;nbsp; 4 - 6&lt;/font&gt;" style="rounded=1;whiteSpace=wrap;html=1;fillColor=none;strokeColor=#FF3333;" vertex="1" parent="SL2A6C5ObI6__MBpmwjM-0">
          <mxGeometry x="849" y="340" width="340" height="70" as="geometry" />
        </mxCell>
        <mxCell id="SL2A6C5ObI6__MBpmwjM-2" value="&lt;font style=&quot;font-size: 24px&quot;&gt;3&lt;/font&gt;" style="rounded=1;whiteSpace=wrap;html=1;fillColor=none;strokeColor=#FF3333;" vertex="1" parent="SL2A6C5ObI6__MBpmwjM-0">
          <mxGeometry x="430" y="340" width="330" height="70" as="geometry" />
        </mxCell>
        <mxCell id="SL2A6C5ObI6__MBpmwjM-3" value="&lt;font style=&quot;font-size: 24px&quot;&gt;7&amp;nbsp; &amp;nbsp; &amp;nbsp; &amp;nbsp; &amp;nbsp; &amp;nbsp; &amp;nbsp; &amp;nbsp; &amp;nbsp; &amp;nbsp; &amp;nbsp; &amp;nbsp; &amp;nbsp; &amp;nbsp; &amp;nbsp; &amp;nbsp; 7&amp;nbsp; &amp;nbsp; &amp;nbsp; &amp;nbsp;&amp;nbsp;&lt;/font&gt;" style="rounded=1;whiteSpace=wrap;html=1;fillColor=none;strokeColor=#FF3333;" vertex="1" parent="SL2A6C5ObI6__MBpmwjM-0">
          <mxGeometry x="1239" y="340" width="590" height="70" as="geometry" />
        </mxCell>
        <mxCell id="SL2A6C5ObI6__MBpmwjM-11" style="edgeStyle=orthogonalEdgeStyle;rounded=0;orthogonalLoop=1;jettySize=auto;html=1;exitX=0.5;exitY=1;exitDx=0;exitDy=0;" edge="1" parent="SL2A6C5ObI6__MBpmwjM-0" source="SL2A6C5ObI6__MBpmwjM-2" target="SL2A6C5ObI6__MBpmwjM-2">
          <mxGeometry relative="1" as="geometry" />
        </mxCell>
        <mxCell id="SL2A6C5ObI6__MBpmwjM-12" value="&lt;font style=&quot;font-size: 12px&quot;&gt;ISO 26262&lt;/font&gt;" style="rounded=1;whiteSpace=wrap;html=1;fillColor=none;strokeColor=#FF3333;" vertex="1" parent="SL2A6C5ObI6__MBpmwjM-0">
          <mxGeometry x="1930" y="654" width="120" height="20" as="geometry" />
        </mxCell>
        <mxCell id="SL2A6C5ObI6__MBpmwjM-104" value="21434" parent="ykP5xD5txdw2n5ki17Vd-0" />
        <mxCell id="ykP5xD5txdw2n5ki17Vd-43" value="Continual Cybersecurity Activities" style="swimlane;fontStyle=0;childLayout=stackLayout;horizontal=1;startSize=26;fillColor=none;horizontalStack=0;resizeParent=1;resizeParentMax=0;resizeLast=0;collapsible=1;marginBottom=0;" vertex="1" parent="SL2A6C5ObI6__MBpmwjM-104">
          <mxGeometry x="430" y="70" width="200" height="50" as="geometry" />
        </mxCell>
        <mxCell id="ykP5xD5txdw2n5ki17Vd-44" value="&#39;434-8" style="text;strokeColor=none;fillColor=none;align=left;verticalAlign=top;spacingLeft=4;spacingRight=4;overflow=hidden;rotatable=0;points=[[0,0.5],[1,0.5]];portConstraint=eastwest;" vertex="1" parent="ykP5xD5txdw2n5ki17Vd-43">
          <mxGeometry y="26" width="200" height="24" as="geometry" />
        </mxCell>
        <mxCell id="ykP5xD5txdw2n5ki17Vd-45" value="Project Management" style="swimlane;fontStyle=0;childLayout=stackLayout;horizontal=1;startSize=26;fillColor=none;horizontalStack=0;resizeParent=1;resizeParentMax=0;resizeLast=0;collapsible=1;marginBottom=0;" vertex="1" parent="SL2A6C5ObI6__MBpmwjM-104">
          <mxGeometry x="270" y="70" width="140" height="50" as="geometry">
            <mxRectangle x="742" y="320" width="130" height="26" as="alternateBounds" />
          </mxGeometry>
        </mxCell>
        <mxCell id="ykP5xD5txdw2n5ki17Vd-46" value="&#39;434-6" style="text;strokeColor=none;fillColor=none;align=left;verticalAlign=top;spacingLeft=4;spacingRight=4;overflow=hidden;rotatable=0;points=[[0,0.5],[1,0.5]];portConstraint=eastwest;" vertex="1" parent="ykP5xD5txdw2n5ki17Vd-45">
          <mxGeometry y="26" width="140" height="24" as="geometry" />
        </mxCell>
        <mxCell id="ykP5xD5txdw2n5ki17Vd-47" value="Organizational Management" style="swimlane;fontStyle=0;childLayout=stackLayout;horizontal=1;startSize=26;fillColor=none;horizontalStack=0;resizeParent=1;resizeParentMax=0;resizeLast=0;collapsible=1;marginBottom=0;" vertex="1" parent="SL2A6C5ObI6__MBpmwjM-104">
          <mxGeometry x="82" y="70" width="170" height="50" as="geometry">
            <mxRectangle x="742" y="320" width="130" height="26" as="alternateBounds" />
          </mxGeometry>
        </mxCell>
        <mxCell id="ykP5xD5txdw2n5ki17Vd-48" value="&#39;434-5" style="text;strokeColor=none;fillColor=none;align=left;verticalAlign=top;spacingLeft=4;spacingRight=4;overflow=hidden;rotatable=0;points=[[0,0.5],[1,0.5]];portConstraint=eastwest;" vertex="1" parent="ykP5xD5txdw2n5ki17Vd-47">
          <mxGeometry y="26" width="170" height="24" as="geometry" />
        </mxCell>
        <mxCell id="ykP5xD5txdw2n5ki17Vd-49" value="Product Development" style="swimlane;fontStyle=0;childLayout=stackLayout;horizontal=1;startSize=26;fillColor=none;horizontalStack=0;resizeParent=1;resizeParentMax=0;resizeLast=0;collapsible=1;marginBottom=0;" vertex="1" parent="SL2A6C5ObI6__MBpmwjM-104">
          <mxGeometry x="861" y="69" width="140" height="52" as="geometry" />
        </mxCell>
        <mxCell id="ykP5xD5txdw2n5ki17Vd-50" value="&#39;434-10" style="text;strokeColor=none;fillColor=none;align=left;verticalAlign=top;spacingLeft=4;spacingRight=4;overflow=hidden;rotatable=0;points=[[0,0.5],[1,0.5]];portConstraint=eastwest;" vertex="1" parent="ykP5xD5txdw2n5ki17Vd-49">
          <mxGeometry y="26" width="140" height="26" as="geometry" />
        </mxCell>
        <mxCell id="ykP5xD5txdw2n5ki17Vd-56" value="Threat Analysis and Risk Assessment" style="swimlane;fontStyle=0;childLayout=stackLayout;horizontal=1;startSize=26;fillColor=none;horizontalStack=0;resizeParent=1;resizeParentMax=0;resizeLast=0;collapsible=1;marginBottom=0;" vertex="1" parent="SL2A6C5ObI6__MBpmwjM-104">
          <mxGeometry x="1840" y="69" width="210" height="52" as="geometry" />
        </mxCell>
        <mxCell id="ykP5xD5txdw2n5ki17Vd-57" value="&#39;434-15" style="text;strokeColor=none;fillColor=none;align=left;verticalAlign=top;spacingLeft=4;spacingRight=4;overflow=hidden;rotatable=0;points=[[0,0.5],[1,0.5]];portConstraint=eastwest;" vertex="1" parent="ykP5xD5txdw2n5ki17Vd-56">
          <mxGeometry y="26" width="210" height="26" as="geometry" />
        </mxCell>
        <mxCell id="ykP5xD5txdw2n5ki17Vd-71" value="Concept" style="swimlane;fontStyle=0;childLayout=stackLayout;horizontal=1;startSize=26;fillColor=none;horizontalStack=0;resizeParent=1;resizeParentMax=0;resizeLast=0;collapsible=1;marginBottom=0;" vertex="1" parent="SL2A6C5ObI6__MBpmwjM-104">
          <mxGeometry x="660" y="69" width="80" height="52" as="geometry">
            <mxRectangle x="742" y="320" width="130" height="26" as="alternateBounds" />
          </mxGeometry>
        </mxCell>
        <mxCell id="ykP5xD5txdw2n5ki17Vd-72" value="&#39;434-9" style="text;strokeColor=none;fillColor=none;align=left;verticalAlign=top;spacingLeft=4;spacingRight=4;overflow=hidden;rotatable=0;points=[[0,0.5],[1,0.5]];portConstraint=eastwest;" vertex="1" parent="ykP5xD5txdw2n5ki17Vd-71">
          <mxGeometry y="26" width="80" height="26" as="geometry" />
        </mxCell>
        <mxCell id="ykP5xD5txdw2n5ki17Vd-73" value="Cybersecurity Validation" style="swimlane;fontStyle=0;childLayout=stackLayout;horizontal=1;startSize=26;fillColor=none;horizontalStack=0;resizeParent=1;resizeParentMax=0;resizeLast=0;collapsible=1;marginBottom=0;" vertex="1" parent="SL2A6C5ObI6__MBpmwjM-104">
          <mxGeometry x="1049" y="69" width="149" height="52" as="geometry">
            <mxRectangle x="742" y="320" width="130" height="26" as="alternateBounds" />
          </mxGeometry>
        </mxCell>
        <mxCell id="ykP5xD5txdw2n5ki17Vd-74" value="&#39;434-11" style="text;strokeColor=none;fillColor=none;align=left;verticalAlign=top;spacingLeft=4;spacingRight=4;overflow=hidden;rotatable=0;points=[[0,0.5],[1,0.5]];portConstraint=eastwest;" vertex="1" parent="ykP5xD5txdw2n5ki17Vd-73">
          <mxGeometry y="26" width="149" height="26" as="geometry" />
        </mxCell>
        <mxCell id="ykP5xD5txdw2n5ki17Vd-78" value="Operations and Maintenance" style="swimlane;fontStyle=0;childLayout=stackLayout;horizontal=1;startSize=26;fillColor=none;horizontalStack=0;resizeParent=1;resizeParentMax=0;resizeLast=0;collapsible=1;marginBottom=0;" vertex="1" parent="SL2A6C5ObI6__MBpmwjM-104">
          <mxGeometry x="1432.75" y="69" width="181.5" height="52" as="geometry">
            <mxRectangle x="742" y="320" width="130" height="26" as="alternateBounds" />
          </mxGeometry>
        </mxCell>
        <mxCell id="ykP5xD5txdw2n5ki17Vd-79" value="&#39;434-13" style="text;strokeColor=none;fillColor=none;align=left;verticalAlign=top;spacingLeft=4;spacingRight=4;overflow=hidden;rotatable=0;points=[[0,0.5],[1,0.5]];portConstraint=eastwest;" vertex="1" parent="ykP5xD5txdw2n5ki17Vd-78">
          <mxGeometry y="26" width="181.5" height="26" as="geometry" />
        </mxCell>
        <mxCell id="ykP5xD5txdw2n5ki17Vd-80" value="EoS and Decommissioning" style="swimlane;fontStyle=0;childLayout=stackLayout;horizontal=1;startSize=26;fillColor=none;horizontalStack=0;resizeParent=1;resizeParentMax=0;resizeLast=0;collapsible=1;marginBottom=0;" vertex="1" parent="SL2A6C5ObI6__MBpmwjM-104">
          <mxGeometry x="1640" y="69" width="171.5" height="52" as="geometry">
            <mxRectangle x="742" y="320" width="130" height="26" as="alternateBounds" />
          </mxGeometry>
        </mxCell>
        <mxCell id="ykP5xD5txdw2n5ki17Vd-81" value="&#39;434-14" style="text;strokeColor=none;fillColor=none;align=left;verticalAlign=top;spacingLeft=4;spacingRight=4;overflow=hidden;rotatable=0;points=[[0,0.5],[1,0.5]];portConstraint=eastwest;" vertex="1" parent="ykP5xD5txdw2n5ki17Vd-80">
          <mxGeometry y="26" width="171.5" height="26" as="geometry" />
        </mxCell>
        <mxCell id="ykP5xD5txdw2n5ki17Vd-82" value="Production" style="swimlane;fontStyle=0;childLayout=stackLayout;horizontal=1;startSize=26;fillColor=none;horizontalStack=0;resizeParent=1;resizeParentMax=0;resizeLast=0;collapsible=1;marginBottom=0;" vertex="1" parent="SL2A6C5ObI6__MBpmwjM-104">
          <mxGeometry x="1261.75" y="69" width="88.5" height="52" as="geometry" />
        </mxCell>
        <mxCell id="ykP5xD5txdw2n5ki17Vd-83" value="&#39;434-12" style="text;strokeColor=none;fillColor=none;align=left;verticalAlign=top;spacingLeft=4;spacingRight=4;overflow=hidden;rotatable=0;points=[[0,0.5],[1,0.5]];portConstraint=eastwest;" vertex="1" parent="ykP5xD5txdw2n5ki17Vd-82">
          <mxGeometry y="26" width="88.5" height="26" as="geometry" />
        </mxCell>
      </root>
    </mxGraphModel>
  </diagram>
</mxfile>
